/* XPM */
static char *result[] = {
/* columns rows colors chars-per-pixel */
"64 64 6 1 ",
"  c #163C2B",
". c #503625",
"X c #755338",
"o c #296640",
"O c #9D7658",
"+ c #509B66",
/* pixels */
"++++++++++++++++++++++++++++++++++++++++++++++++++++++++++++++++",
"++++++++++++++++++++++++++++++++++++++++++++++++++++++++++++++++",
"++++++++++++++++++++++++++++++++++++++++++++++++++++++++++++++++",
"++++++++++++++++++++++++++++++++++++++++++++++++++++++++++++++++",
"++++++++++++++++++++++++++oo++++++++++++++++++++++++++++++++++++",
"++++++++++++++++++++++++++oo++++++++++++++++++++++++++++++++++++",
"++++++++++++++oo  ++++oooo  ++++++++oo++++++oo++++++++++++++++++",
"++++++++++++++oo  ++++oooo  ++++++++oo++++++oo++++++++++++++++++",
"++++++++++++++oo  oooo    oo++++++oo  ++++oo  ++++++oo++++++++++",
"++++++++++++++oo  oooo    oo++++++oo  ++++oo  ++++++oo++++++++++",
"++++++++++oooo        XX    oooooooo            oooo  ++++++++++",
"++++++++++oooo        XX    oooooooo            oooo  ++++++++++",
"++++++++oo    XXXXXXXXOOXXXX        XXXXXXXXXX        oo++++++++",
"++++++++oo    XXXXXXXXOOXXXX        XXXXXXXXXX        oo++++++++",
"++++++oo  XXXXOOOOOOOOOOOOOOOOXXXXXXOOOOOOOOOOXXXXXX..  oo++++++",
"++++++oo  XXXXOOOOOOOOOOOOOOOOXXXXXXOOOOOOOOOOXXXXXX..  oo++++++",
"++++++    XXOOOOOOOOOOOOOOOOOOOOOOOOOOOOOOOOOOOOOOXX  ++++++++++",
"++++++    XXOOOOOOOOOOOOOOOOOOOOOOOOOOOOOOOOOOOOOOXX  ++++++++++",
"++++++oo  XXOOOOOOOOOOOOOOOOOOOOOOOOOOOOOOOOOOOOOO  oo++++++++++",
"++++++oo  XXOOOOOOOOOOOOOOOOOOOOOOOOOOOOOOOOOOOOOO  oo++++++++++",
"++++++++oo  OOOOOOOOOOOOOOOOOOOOOOOOOOOOOOOOOOOOOO  oo++++++++++",
"++++++++oo  OOOOOOOOOOOOOOOOOOOOOOOOOOOOOOOOOOOOOO  oo++++++++++",
"++++++++oo  OOOOOOOOOOOOOOOOOOOOOOOOOOOOOOOOOOOOOOXX  oo++++++++",
"++++++++oo  OOOOOOOOOOOOOOOOOOOOOOOOOOOOOOOOOOOOOOXX  oo++++++++",
"++++++++oo  OOOOOOOOOOOOOOOOOOOOOOOOOOOOOOOOOOOOOOOO  oo++++++++",
"++++++++oo  OOOOOOOOOOOOOOOOOOOOOOOOOOOOOOOOOOOOOOOO  oo++++++++",
"++++++oo  XXOOOOOOOOOOOOOOOOOOOOOOOOOOOOOOOOOOOOOOOOXX  ++++++++",
"++++++oo  XXOOOOOOOOOOOOOOOOOOOOOOOOOOOOOOOOOOOOOOOOXX  ++++++++",
"++++++oo  XXOOOOOOOOOOOOOOOOOOOOOOOOOOOOOOOOOOOOOOOO  ++++++++++",
"++++++oo  XXOOOOOOOOOOOOOOOOOOOOOOOOOOOOOOOOOOOOOOOO  ++++++++++",
"++++++  XXOOOOOOOOOOOOOOOOOOOOOOOOOOOOOOOOOOOOOOOOOO  ++++++++++",
"++++++  XXOOOOOOOOOOOOOOOOOOOOOOOOOOOOOOOOOOOOOOOOOO  ++++++++++",
"++++++++  XXOOOOOOOOOOOOOOOOOOOOOOOOOOOOOOOOOOOOOOOO  oo++++++++",
"++++++++  XXOOOOOOOOOOOOOOOOOOOOOOOOOOOOOOOOOOOOOOOO  oo++++++++",
"++++++++oo  OOOOOOOOOOOOOOOOOOOOOOOOOOOOOOOOOOOOOOOOXX    ++++++",
"++++++++oo  OOOOOOOOOOOOOOOOOOOOOOOOOOOOOOOOOOOOOOOOXX    ++++++",
"++++++++oo  OOOOOOOOOOOOOOOOOOOOOOOOOOOOOOOOOOOOOOOO    ++++++++",
"++++++++oo  OOOOOOOOOOOOOOOOOOOOOOOOOOOOOOOOOOOOOOOO    ++++++++",
"++++  oooo  OOOOOOOOOOOOOOOOOOOOOOOOOOOOOOOOOOOOOOOO  ++++++++++",
"++++  oooo  OOOOOOOOOOOOOOOOOOOOOOOOOOOOOOOOOOOOOOOO  ++++++++++",
"++++++    XXOOOOOOOOOOOOOOOOOOOOOOOOOOOOOOOOOOOOOOOO  oo++++++++",
"++++++    XXOOOOOOOOOOOOOOOOOOOOOOOOOOOOOOOOOOOOOOOO  oo++++++++",
"++++++++  XXOOOOOOOOOOOOOOOOOOOOOOOOOOOOOOOOOOOOOOOO  oo++++++++",
"++++++++  XXOOOOOOOOOOOOOOOOOOOOOOOOOOOOOOOOOOOOOOOO  oo++++++++",
"++++++oo  OOOOOOOOOOOOOOOOOOOOOOOOOOOOOOOOOOOOOOOOOOXX  ++++++++",
"++++++oo  OOOOOOOOOOOOOOOOOOOOOOOOOOOOOOOOOOOOOOOOOOXX  ++++++++",
"++++++  XXOOOOOOOOOOOOOOOOOOOOOOOOOOOOOOOOOOOOOOOOXX  ++++++++++",
"++++++  XXOOOOOOOOOOOOOOOOOOOOOOOOOOOOOOOOOOOOOOOOXX  ++++++++++",
"++++++++  XXOOOOOOOOOOOOOOOOOOOOOOOOOOOOOOOOOOOOOO  ++++++++++++",
"++++++++  XXOOOOOOOOOOOOOOOOOOOOOOOOOOOOOOOOOOOOOO  ++++++++++++",
"++++++oo  XXOOOOOOOOOOOOOOOOOOOOOOOOOOOOOOOOOOOOXX  oo++++++++++",
"++++++oo  XXOOOOOOOOOOOOOOOOOOOOOOOOOOOOOOOOOOOOXX  oo++++++++++",
"++++++++oo  XXXXXX      XXOOOOOOOOOOOOOOOOOOOOXX    oooo++++++++",
"++++++++oo  XXXXXX      XXOOOOOOOOOOOOOOOOOOOOXX    oooo++++++++",
"++++++++++++      oooooo  XX    OOOO      XX    ++++  ++++++++++",
"++++++++++++      oooooo  XX    OOOO      XX    ++++  ++++++++++",
"++++++++++++++oo  ++++++oo  oooo    oooooo  oo++++++++++++++++++",
"++++++++++++++oo  ++++++oo  oooo    oooooo  oo++++++++++++++++++",
"++++++++++++++++oo++++++++oo++++++oo++++++oo++++++++++++++++++++",
"++++++++++++++++oo++++++++oo++++++oo++++++oo++++++++++++++++++++",
"++++++++++++++++++++++++++++++++++++++++++++++++++++++++++++++++",
"++++++++++++++++++++++++++++++++++++++++++++++++++++++++++++++++",
"++++++++++++++++++++++++++++++++++++++++++++++++++++++++++++++++",
"++++++++++++++++++++++++++++++++++++++++++++++++++++++++++++++++"
};
