/* XPM */
static char *result[] = {
/* columns rows colors chars-per-pixel */
"64 64 13 1 ",
"  c #141B1B",
". c #163C2B",
"X c #61372E",
"o c #554337",
"O c #755338",
"+ c #296640",
"@ c #705849",
"# c #816554",
"$ c #9D7658",
"% c #997864",
"& c #509B66",
"* c #DABF94",
"= c #F3DEBA",
/* pixels */
"&&&&&&&&&&&&&&&&&&&&&&&&&&&&&&&&&&&&&&&&&&&&&&&&&&&&&&&&&&&&&&&&",
"&&&&&&&&&&&&&&&&&&&&&&&&&&&&&&&&&&&&&&&&&&&&&&&&&&&&&&&&&&&&&&&&",
"&&&&&&&&&&&&&&&&&&&&&&&&&&&&&&&&&&&&&&&&&&&&oooooooooooooo&&&&&&",
"&&&&&&&&&&&&&&&&&&&&&&&&&&&&&&&&&&&&&&&&&&&&oooooooooooooo&&&&&&",
"&&&&&&&&&&&&&&&&&&&&&&&&&&&&&&oooooooooooooo@@%%%%%%%%%%oo&&&&&&",
"&&&&&&&&&&&&&&&&&&&&&&&&&&&&&&oooooooooooooo@@%%%%%%%%%%oo&&&&&&",
"&&&&&&&&&&&&&&&&oooooooooooooo%%%%%%%%%%%%%%@@%%%%%%%%%%XX&&&&&&",
"&&&&&&&&&&&&&&&&oooooooooooooo%%%%%%%%%%%%%%@@%%%%%%%%%%XX&&&&&&",
"&&&&&&oooooooooo%%%%%%%%%%%%@@%%%%%%%%%%%%%%@@%%%%%%%%%%XX&&&&&&",
"&&&&&&oooooooooo%%%%%%%%%%%%@@%%%%%%%%%%%%%%@@%%%%%%%%%%XX&&&&&&",
"&&&&&&oo%%%%%%@@%%%%%%%%%%%%@@@@@@@@@@@@%%%%@@@@@@@@@@@@XX&&&&&&",
"&&&&&&oo%%%%%%@@%%%%%%%%%%%%@@@@@@@@@@@@%%%%@@@@@@@@@@@@XX&&&&&&",
"&&&&&&oo%%%%%%@@%%%%%%@@@@@@@@oo======@@@@@@@@%%%%%%%%%%XX&&&&&&",
"&&&&&&oo%%%%%%@@%%%%%%@@@@@@@@oo======@@@@@@@@%%%%%%%%%%XX&&&&&&",
"&&&&&&oo%%%%%%@@@@@@@@@@======oooooooo@@%%%%%%%%%%%%%%%%XX&&&&&&",
"&&&&&&oo%%%%%%@@@@@@@@@@======oooooooo@@%%%%%%%%%%%%%%%%XX&&&&&&",
"&&&&&&oo@@@@@@@@%%%%%%@@oooooooo======@@%%%%%%@@@@@@@@@@XX&&&&&&",
"&&&&&&oo@@@@@@@@%%%%%%@@oooooooo======@@%%%%%%@@@@@@@@@@XX&&&&&&",
"&&&&&&oo%%%%%%%%%%%%%%@@======oooooooo@@@@@@@@@@%%%%%%%%XX&&&&&&",
"&&&&&&oo%%%%%%%%%%%%%%@@======oooooooo@@@@@@@@@@%%%%%%%%XX&&&&&&",
"&&&&&&oo%%%%%%%%@@@@@@@@oooooooo======@@%%%%%%@@%%%%%%%%XX&&&&&&",
"&&&&&&oo%%%%%%%%@@@@@@@@oooooooo======@@%%%%%%@@%%%%%%%%XX&&&&&&",
"&&&&&&oo@@@@@@@@@@%%%%@@======oo@@@@@@@@%%%%%%@@%%%%%%%%XX&&&&&&",
"&&&&&&oo@@@@@@@@@@%%%%@@======oo@@@@@@@@%%%%%%@@%%%%%%%%XX&&&&&&",
"&&&&&&oo%%%%%%%%@@%%%%@@@@@@@@@@@@%%%%%%%%%%@@@@@@@@@@@@XX&&&&&&",
"&&&&&&oo%%%%%%%%@@%%%%@@@@@@@@@@@@%%%%%%%%%%@@@@@@@@@@@@XX&&&&&&",
"&&&&&&oo%%%%%%%%@@%%%%%%%%%%%%%%@@@@@@@@@@@@oooooooooooooo&&&&&&",
"&&&&&&oo%%%%%%%%@@%%%%%%%%%%%%%%@@@@@@@@@@@@oooooooooooooo&&&&&&",
"&&&&&&oo%%%%%%%%@@@@@@@@@@@@@@oooooooooooooo********%%oo&&&&&&&&",
"&&&&&&oo%%%%%%%%@@@@@@@@@@@@@@oooooooooooooo********%%oo&&&&&&&&",
"&&&&&&oo@@@@@@@@oooooooooooooo**************==**====%%oo&&&&&&&&",
"&&&&&&oo@@@@@@@@oooooooooooooo**************==**====%%oo&&&&&&&&",
"&&&&&&oooooooooo************========**========**====%%oo&&&&&&&&",
"&&&&&&oooooooooo************========**========**====%%oo&&&&&&&&",
"&&&&&&&&oo####****====##%%%%%%%%%%%%%%%%%%##========%%oo&&&&&&&&",
"&&&&&&&&oo####****====##%%%%%%%%%%%%%%%%%%##========%%oo&&&&&&&&",
"&&&&&&&&oo%%====**==##%%oooooooooooooooo%%%%========%%oo&&&&&&&&",
"&&&&&&&&oo%%====**==##%%oooooooooooooooo%%%%========%%oo&&&&&&&&",
"&&&&&&&&oo%%========##%%                oo%%========%%oo&&&&&&&&",
"&&&&&&&&oo%%========##%%                oo%%========%%oo&&&&&&&&",
"&&&&&&&&oo%%========##%%                oo%%========%%oo&&&&&&&&",
"&&&&&&&&oo%%========##%%                oo%%========%%oo&&&&&&&&",
"&&&&&&&&oo%%========##%%                oo%%========%%oo&&&&&&&&",
"&&&&&&&&oo%%========##%%                oo%%========%%oo&&&&&&&&",
"&&&&&&&&oo%%====**==##%%                oo%%====**==%%oo&&&&&&&&",
"&&&&&&&&oo%%====**==##%%                oo%%====**==%%oo&&&&&&&&",
"&&&&&&&&oo##********##%%                oo%%********%%oo&&&&&&&&",
"&&&&&&&&oo##********##%%                oo%%********%%oo&&&&&&&&",
"&&&&&&&&oo####%%%%%%##%%  oooooooooooo  oo%%%%%%%%%%%%oo&&&&&&&&",
"&&&&&&&&oo####%%%%%%##%%  oooooooooooo  oo%%%%%%%%%%%%oo&&&&&&&&",
"&&&&&&++ooooooooooooooooOOOOOOOOOOOOOOOOoooooooooooooooo++&&&&&&",
"&&&&&&++ooooooooooooooooOOOOOOOOOOOOOOOOoooooooooooooooo++&&&&&&",
"&&&&&&++....OOOO$$$$$$$$$$$$$$$$$$$$$$$$OOOOOOOO........++&&&&&&",
"&&&&&&++....OOOO$$$$$$$$$$$$$$$$$$$$$$$$OOOOOOOO........++&&&&&&",
"&&&&&&&&&&++......OO$$$$$$$$$$$$$$$$$$$$$$$$$$..++++..++&&&&&&&&",
"&&&&&&&&&&++......OO$$$$$$$$$$$$$$$$$$$$$$$$$$..++++..++&&&&&&&&",
"&&&&&&&&&&&&++++....OO......$$$$$$$$..........++&&&&++&&&&&&&&&&",
"&&&&&&&&&&&&++++....OO......$$$$$$$$..........++&&&&++&&&&&&&&&&",
"&&&&&&&&&&&&&&&&++&&..&&++++........++++++++..&&&&&&&&&&&&&&&&&&",
"&&&&&&&&&&&&&&&&++&&..&&++++........++++++++..&&&&&&&&&&&&&&&&&&",
"&&&&&&&&&&&&&&&&&&&&&&&&&&++..++&&&&&&++&&&&&&&&&&&&&&&&&&&&&&&&",
"&&&&&&&&&&&&&&&&&&&&&&&&&&++..++&&&&&&++&&&&&&&&&&&&&&&&&&&&&&&&",
"&&&&&&&&&&&&&&&&&&&&&&&&&&&&&&&&&&&&&&&&&&&&&&&&&&&&&&&&&&&&&&&&",
"&&&&&&&&&&&&&&&&&&&&&&&&&&&&&&&&&&&&&&&&&&&&&&&&&&&&&&&&&&&&&&&&"
};
