/* XPM */
static char *bd064a7b69b043f7c3509d9349c24dfeitSSiAyz7wvZk3d1[] = {
/* columns rows colors chars-per-pixel */
"64 64 4 1 ",
"  c None",
". c black",
"X c gray24",
"o c #99E550",
/* pixels */
"                                                                ",
"                                                                ",
"                                                                ",
"                                                                ",
"                                                                ",
"                                                                ",
"                                                                ",
"                                                                ",
"                                                                ",
"                            XXXXXXXX                            ",
"                            XXXXXXXX                            ",
"                        XXXXXXXXXXXXXXXX                        ",
"                        XXXXXXXXXXXXXXXX                        ",
"                      XXXXXXXXXXXXXXXXXXXX                      ",
"                      XXXXXXXXXXXXXXXXXXXX                      ",
"                      XXXXXXXXXXXXXXXXXXXX                      ",
"                      XXXXXXXXXXXXXXXXXXXX                      ",
"                      XXXXXXXXXXXXXXXXXXXX                      ",
"                      XXXXXXXXXXXXXXXXXXXX                      ",
"                      XXXXXXXXXXXXXXXXXXXX                      ",
"                      XXXXXXXXXXXXXXXXXXXX                      ",
"                      XXXXXXXXXXXXXXXXXXXX                      ",
"                      XXXXXXXXXXXXXXXXXXXX                      ",
"                    XXXXXXXXXXXXXXXXXXXXXXXX                    ",
"                    XXXXXXXXXXXXXXXXXXXXXXXX                    ",
"                      XXXXXXXXXXXXXXXXXXXX                      ",
"                      XXXXXXXXXXXXXXXXXXXX                      ",
"                          XXXXXXXXXXXX                          ",
"                          XXXXXXXXXXXX                          ",
"                              XXXX                              ",
"                              XXXX                              ",
"                            XXXXXXXXoo                          ",
"                            XXXXXXXXoo                          ",
"                          XXXXXXXXXXXXoo                        ",
"                          XXXXXXXXXXXXoo                        ",
"                          XXXXXXXXXXXXoo                        ",
"                          XXXXXXXXXXXXoo                        ",
"                        ooXXXXXXXXXXXXoooo                      ",
"                        ooXXXXXXXXXXXXoooo                      ",
"                        ooXXXXXXXXXXoooooo                      ",
"                        ooXXXXXXXXXXoooooo                      ",
"                      ooooXXXXXXXXXXoooooo                      ",
"                      ooooXXXXXXXXXXoooooo                      ",
"                      ooXXXXXXXXXXXXoooooo                      ",
"                      ooXXXXXXXXXXXXoooooo                      ",
"                        XXXXXXXXXXXXoooooo                      ",
"                        XXXXXXXXXXXXoooooo                      ",
"                        XXXXXX  ......                          ",
"                        XXXXXX  ......                          ",
"                        XXXXXX  ......                          ",
"                        XXXXXX  ......                          ",
"                          XXXX  ......                          ",
"                          XXXX  ......                          ",
"                          XXXX    ..XX                          ",
"                          XXXX    ..XX                          ",
"                            XX    ..                            ",
"                            XX    ..                            ",
"                            XX    ....                          ",
"                            XX    ....                          ",
"                          XXXX                                  ",
"                          XXXX                                  ",
"                                                                ",
"                                                                ",
"                                                                "
};
