/* XPM */
static char *_d3dc679e1b04487cbec9fa3142fdb64SwDzEZvtgqnWXBMn[] = {
/* columns rows colors chars-per-pixel */
"64 64 4 1 ",
"  c None",
". c gray24",
"X c #99E550",
"o c white",
/* pixels */
"                                                                ",
"                                                                ",
"                                                                ",
"                                                                ",
"                                                                ",
"                                                                ",
"                                                                ",
"                            ........                            ",
"                            ........                            ",
"                        ................                        ",
"                        ................                        ",
"                      ....................                      ",
"                      ....................                      ",
"                      ....................                      ",
"                      ....................                      ",
"                      ....................                      ",
"                      ....................                      ",
"                      ....................                      ",
"                      ....................                      ",
"                      ....oo........oo....                      ",
"                      ....oo........oo....                      ",
"                    ......oo........oo......                    ",
"                    ......oo........oo......                    ",
"                      ....................                      ",
"                      ....................                      ",
"                          ............                          ",
"                          ............                          ",
"                              ....                              ",
"                              ....                              ",
"                          XX........XX                          ",
"                          XX........XX                          ",
"                        XX............XX                        ",
"                        XX............XX                        ",
"                        XX............XX                        ",
"                        XX............XX                        ",
"                      XXXX............XXXX                      ",
"                      XXXX............XXXX                      ",
"                      XXXX............XXXX                      ",
"                      XXXX............XXXX                      ",
"                    XXXXXX............XXXXXX                    ",
"                    XXXXXX............XXXXXX                    ",
"                    XXXX................XXXX                    ",
"                    XXXX................XXXX                    ",
"                    XXXX................XXXX                    ",
"                    XXXX................XXXX                    ",
"                        ......    ......                        ",
"                        ......    ......                        ",
"                        ......    ......                        ",
"                        ......    ......                        ",
"                          ....    ....                          ",
"                          ....    ....                          ",
"                          ....    ....                          ",
"                          ....    ....                          ",
"                          ....    ....                          ",
"                          ....    ....                          ",
"                            ..    ..                            ",
"                            ..    ..                            ",
"                            ..    ..                            ",
"                            ..    ..                            ",
"                          ....    ....                          ",
"                          ....    ....                          ",
"                                                                ",
"                                                                ",
"                                                                "
};
