/* XPM */
static char *_138d24c4387438d9ceb18a2aeffaccfVZZetvxMWovBo2Fv[] = {
/* columns rows colors chars-per-pixel */
"64 64 5 1 ",
"  c None",
". c black",
"X c gray24",
"o c #99E550",
"O c white",
/* pixels */
"                                                                ",
"                                                                ",
"                                                                ",
"                                                                ",
"                                                                ",
"                                                                ",
"                                                                ",
"                                                                ",
"                                                                ",
"                            XXXXXXXX                            ",
"                            XXXXXXXX                            ",
"                        XXXXXXXXXXXXXXXX                        ",
"                        XXXXXXXXXXXXXXXX                        ",
"                      XXXXXXXXXXXXXXXXXXXX                      ",
"                      XXXXXXXXXXXXXXXXXXXX                      ",
"                      XXXXXXXXXXXXXXXXXXXX                      ",
"                      XXXXXXXXXXXXXXXXXXXX                      ",
"                      XXXXXXXXXXXXXXXXXXXX                      ",
"                      XXXXXXXXXXXXXXXXXXXX                      ",
"                      XXXXXXXXXXXXXXXXXXXX                      ",
"                      XXXXXXXXXXXXXXXXXXXX                      ",
"                      XXXXOOXXXXXXXXOOXXXX                      ",
"                      XXXXOOXXXXXXXXOOXXXX                      ",
"                    XXXXXXOOXXXXXXXXOOXXXXXX                    ",
"                    XXXXXXOOXXXXXXXXOOXXXXXX                    ",
"                      XXXXXXXXXXXXXXXXXXXX                      ",
"                      XXXXXXXXXXXXXXXXXXXX                      ",
"                          XXXXXXXXXXXX                          ",
"                          XXXXXXXXXXXX                          ",
"                              XXXX                              ",
"                              XXXX                              ",
"                            XXXXXXXXoo                          ",
"                            XXXXXXXXoo                          ",
"                          XXXXXXXXXXXXoo                        ",
"                          XXXXXXXXXXXXoo                        ",
"                          XXXXXXXXXXXXoo                        ",
"                          XXXXXXXXXXXXoo                        ",
"                        ooXXXXXXXXXXXXoooo                      ",
"                        ooXXXXXXXXXXXXoooo                      ",
"                        ooXXXXXXXXXXoooooo                      ",
"                        ooXXXXXXXXXXoooooo                      ",
"                      ooooXXXXXXXXXXoooooo                      ",
"                      ooooXXXXXXXXXXoooooo                      ",
"                      ooXXXXXXXXXXXXoooooo                      ",
"                      ooXXXXXXXXXXXXoooooo                      ",
"                        XXXXXXXXXXXXoooooo                      ",
"                        XXXXXXXXXXXXoooooo                      ",
"                        XXXXXX  ......                          ",
"                        XXXXXX  ......                          ",
"                        XXXXXX  ......                          ",
"                        XXXXXX  ......                          ",
"                          XXXX  ......                          ",
"                          XXXX  ......                          ",
"                          XXXX    ..XX                          ",
"                          XXXX    ..XX                          ",
"                            XX    ..                            ",
"                            XX    ..                            ",
"                            XX    ....                          ",
"                            XX    ....                          ",
"                          XXXX                                  ",
"                          XXXX                                  ",
"                                                                ",
"                                                                ",
"                                                                "
};
