/* XPM */
static char *_00d72b1ac044e7590e6b5dfd3932109eCPwLGcLSEpZTogI[] = {
/* columns rows colors chars-per-pixel */
"64 64 5 1 ",
"  c None",
". c black",
"X c gray24",
"o c #99E550",
"O c white",
/* pixels */
"                                                                ",
"                                                                ",
"                                                                ",
"                                                                ",
"                                                                ",
"                                                                ",
"                                                                ",
"                                                                ",
"                                                                ",
"                            XXXXXXXX                            ",
"                            XXXXXXXX                            ",
"                        XXXXXXXXXXXXXXXX                        ",
"                        XXXXXXXXXXXXXXXX                        ",
"                      XXXXXXXXXXXXXXXXXXXX                      ",
"                      XXXXXXXXXXXXXXXXXXXX                      ",
"                      XXXXXXXXXXXXXXXXXXXX                      ",
"                      XXXXXXXXXXXXXXXXXXXX                      ",
"                      XXXXXXXXXXXXXXXXXXXX                      ",
"                      XXXXXXXXXXXXXXXXXXXX                      ",
"                      XXXXXXXXXXXXXXXXXXXX                      ",
"                      XXXXXXXXXXXXXXXXXXXX                      ",
"                      XXXXXXXXXXXXOOXXXXXX                      ",
"                      XXXXXXXXXXXXOOXXXXXX                      ",
"                      XXXXXXXXXXXXOOXXXX                        ",
"                      XXXXXXXXXXXXOOXXXX                        ",
"                      XXXXXXXXXXXXXXXXXX                        ",
"                      XXXXXXXXXXXXXXXXXX                        ",
"                          XXXXXXXXXXXX                          ",
"                          XXXXXXXXXXXX                          ",
"                            XXXX                                ",
"                            XXXX                                ",
"                            XXXXXX                              ",
"                            XXXXXX                              ",
"                          XXooXXXXXX                            ",
"                          XXooXXXXXX                            ",
"                          ooooXXXXXX                            ",
"                          ooooXXXXXX                            ",
"                        ooooXXXXXXXXXX                          ",
"                        ooooXXXXXXXXXX                          ",
"                        ooooXXXXXXXXXX                          ",
"                        ooooXXXXXXXXXX                          ",
"                      ooooooXXXXXXXXXXoo                        ",
"                      ooooooXXXXXXXXXXoo                        ",
"                      ooooooooXXXXXXXXoo                        ",
"                      ooooooooXXXXXXXXoo                        ",
"                      ooooooXXXXXXXXXXXX                        ",
"                      ooooooXXXXXXXXXXXX                        ",
"                            ..XXXXXXXXXX                        ",
"                            ..XXXXXXXXXX                        ",
"                            ..XXXXXXXXXX                        ",
"                            ..XXXXXXXXXX                        ",
"                          ......XXXXXX                          ",
"                          ......XXXXXX                          ",
"                          ....    XXXX                          ",
"                          ....    XXXX                          ",
"                        ....        XX                          ",
"                        ....        XX                          ",
"                      ....          XX                          ",
"                      ....          XX                          ",
"                      ..            XXXX                        ",
"                      ..            XXXX                        ",
"                                                                ",
"                                                                ",
"                                                                "
};
