/* XPM */
static char *_88c6bf9f307437cd04296243ba0c800745mJmM8i4sUReUw[] = {
/* columns rows colors chars-per-pixel */
"64 64 9 1 ",
"  c gray45",
". c #7B7B7B",
"X c #7E7E7E",
"o c #808080",
"O c #898989",
"+ c #939393",
"@ c gray59",
"# c #9B9B9B",
"$ c gray62",
/* pixels */
"$$$$$$$$$$$$$$$$$$$$$$$$$$$$$$$$$$$$$$$$$$$$$$$$$$$$$$$$$$$$$$$$",
"$$$$$$$$$$$$$$$$$$$$$$$$$$$$$$$$$$$$$$$$$$$$$$$$$$$$$$$$$$$$$$$$",
"$$$$$$$$$$$$$$$$$$$$$$$$$$$$$$$$$$$$$$$$$$$$$$$$$$$$$$$$$$$$$$$$",
"$$$$#$$$$$$$$$$$$$$$$$$$$$$$$$$$$$$$$$$$$$$$$$$$$$$$$$$$$$$$$$$$",
"$$$$$$$$$$$$$$$$$$$$$$$$$$$$$$$$$$$$$$$$$$$$$$$$$$$$$$$$$$$$$$$$",
"$$$$$$$$$$$$$$$$$$$$$$$$$$$$$$$$$$$$$$$$$$$$$$$$$$$$$$$$$$$$$$$$",
"$$$$$$@@+@@++++@++@+@+++@++@++@++@@++++@++@+@+++@++@++@++#$$$$$$",
"$$$$$$O                                                  @$$$$$$",
"$$$$$$O                                                  +$$$$$$",
"$$$$$$O                                                  +$$$$$$",
"$$$$$$O                                                  +$$$$$$",
"$$$$$$O    X.XXX.XXXXX.XXX.XX.XXXX.XX.XXXX.XX.XXXX..     @$$$$$$",
"$$$$$$O    o$$$$$$$$$$$$$$$$$$$$$$$$$$$$$$$$$$$$$$$O     @$$$$$$",
"$$$$$$O    X$#@+@++++@++++@+++@+++@++++@++@++++@+@$+     +$$$$$$",
"$$$$$$O    X$+                                   X$+     +$$$$$$",
"$$$$$$O    X$+                                   X$+     +$$$$$$",
"$$$$$$O    X$@                                   X$+     @$$$$$$",
"$$$$$$O    X$+                                   X$+     +$$$$$$",
"$$$$$$O    X$@                                   X$+     @$$$$$$",
"$$$$$$O    X$+                                   X$+     +$$$$$$",
"$$$$$$O    X$@                                   X$+     +$$$$$$",
"$$$$$$O    X$+                                   X$+     +$$$$$$",
"$$$$$$O    X$+                                   X$+     @$$$$$$",
"$$$$$$O    X$+                                   X$+     +$$$$$$",
"$$$$$$O    X$+                                   X$+     +$$$$$$",
"$$$$$$O    X$@                                   X$+     @$$$$$$",
"$$$$$$O    X$+                                   X$+     +$$$$$$",
"$$$$$$O    X$+                                   X$+     +$$$$$$",
"$$$$$$O    X$@                                   X$+     +$$$$$$",
"$$$$$$O    X$+                                   X$+     @$$$$$$",
"$$$$$$O    X$@                                   X$+     +$$$$$$",
"$$$$$$O    X$+                                   X$+     @$$$$$$",
"$$$$$$O    X$+                                   X$+     +$$$$$$",
"$$$$$$O    X$+                                   X$+     +$$$$$$",
"$$$$$$O    X$@                                   X$+     +$$$$$$",
"$$$$$$O    X$+                                   X$+     @$$$$$$",
"$$$$$$O    X$@                                   X$+     @$$$$$$",
"$$$$$$O    X$+                                   X$+     +$$$$$$",
"$$$$$$O    X$+                                   X$+     +$$$$$$",
"$$$$$$O    X$@                                   X$+     +$$$$$$",
"$$$$$$O    X$+                                   X$+     @$$$$$$",
"$$$$$$O    X$@                                   X$+     +$$$$$$",
"$$$$$$O    X$+                                   X$+     @$$$$$$",
"$$$$$$O    X$+                                   X$+     +$$$$$$",
"$$$$$$O    X$+                                   X$+     +$$$$$$",
"$$$$$$O    X$+                                   X$+     +$$$$$$",
"$$$$$$O    X$@                                   X$+     @$$$$$$",
"$$$$$$O    X$+                                   X$+     +$$$$$$",
"$$$$$$O    X$@                                   X$+     @$$$$$$",
"$$$$$$O    X$+                                   X$+     +$$$$$$",
"$$$$$$O    X$+                                   X$+     +$$$$$$",
"$$$$$$O    X$$$$$$$$$$$$$$$$$$$$$$$$$$$$$$$$$$$$$$$+     @$$$$$$",
"$$$$$$O    .@$$$$$$$$$$$$$$$$$$$$$$$$$$$$$$$$$$$$$#X     @$$$$$$",
"$$$$$$O                                                  +$$$$$$",
"$$$$$$O                                                  +$$$$$$",
"$$$$$$O                                                  +$$$$$$",
"$$$$$$O                                                  @$$$$$$",
"$$$$$$+OOOOOOOOOOOOOOOOOOOOOOOOOOOOOOOOOOOOOOOOOOOOOOOOOO#$$$$$$",
"$$$$$$$$$$$$$$$$$$$$$$$$$$$$$$$$$$$$$$$$$$$$$$$$$$$$$$$$$$$$$$$$",
"$$$$$#$$$$$$$$$$$$$$$$$$$$$$$$$$$$$$$$$$$$$$$$$$$$$$$$$$$$#$$$$$",
"$$$$$$$$$$$$$$$$$$$$$$$$$$$$$$$$$$$$$$$$$$$$$$$$$$$$$$$$$$$$$$$$",
"$$$$$$$$$$$$$$$$$$$$$$$$$$$$$$$$$$$$$$$$$$$$$$$$$$$$$$$$$$$$$$$$",
"$$$$$$$$$$$$$$$$$$$$$$$$$$$$$$$$$$$$$$$$$$$$$$$$$$$$$$$$$$$$$$$$",
"$$$$$$$$$$$$$$$$$$$$$$$$$$$$$$$$$$$$$$$$$$$$$$$$$$$$$$$$$$$$$$$$"
};
