/* XPM */
static char *ec0ec25182894bf9c7db03086f0c5e09AqzQbcUfazJ9uOD3[] = {
/* columns rows colors chars-per-pixel */
"64 64 9 1 ",
"  c #163C2B",
". c #755338",
"X c #296640",
"o c #9D7658",
"O c #509B66",
"+ c #00ACFF",
"@ c #00CCFF",
"# c #D7F8FF",
"$ c #F4FDFF",
/* pixels */
"OOOOOOOOOOOOXX  ++++@@@@@@@@@@@@@@@@@@@@@@@@++++++++++++++++++++",
"OOOOOOOOOOOOXX  ++++@@@@@@@@@@@@@@@@@@@@@@@@++++++++++++++++++++",
"OOOOOOOOOOXX  ++++++@@@@@@@@@@@@@@@@@@@@@@@@++++++++++++++++++++",
"OOOOOOOOOOXX  ++++++@@@@@@@@@@@@@@@@@@@@@@@@++++++++++++++++++++",
"OOOOOOOOOOOO    ++@@@@@@@@@@@@@@@@@@@@@@@@@@++++++++++++++++++++",
"OOOOOOOOOOOO    ++@@@@@@@@@@@@@@@@@@@@@@@@@@++++++++++++++++++++",
"OOXXOOOOOOOOXX  ++@@@@@@@@@@@@@@@@@@@@@@@@@@++++++++++++++++++++",
"OOXXOOOOOOOOXX  ++@@@@@@@@@@@@@@@@@@@@@@@@@@++++++++++++++++++++",
"XX  OOOOOOOOXX  ++@@@@@@@@@@@@@@@@@@@@@@@@++++++++++++++++++++++",
"XX  OOOOOOOOXX  ++@@@@@@@@@@@@@@@@@@@@@@@@++++++++++++++++++++++",
"  OOOOOOOOOOXX  ++@@@@@@@@@@@@@@@@@@@@@@@@++++++++++++++++++++++",
"  OOOOOOOOOOXX  ++@@@@@@@@@@@@@@@@@@@@@@@@++++++++++++++++++++++",
"    OOXXXXXX    ++@@@@@@@@@@@@@@@@@@@@@@@@++++++++++++++++++++++",
"    OOXXXXXX    ++@@@@@@@@@@@@@@@@@@@@@@@@++++++++++++++++++++++",
"....          ++++@@@@@@@@@@@@@@@@@@@@@@@@++++++++++++++++++++++",
"....          ++++@@@@@@@@@@@@@@@@@@@@@@@@++++++++++++++++++++++",
"oo........oo..++++++@@@@@@@@@@@@@@@@@@@@@@++++++++++++++++++++++",
"oo........oo..++++++@@@@@@@@@@@@@@@@@@@@@@++++++++++++++++++++++",
"oooooooooooo..++++++@@@@@@@@@@@@@@@@@@@@@@++++++++++++++++++++++",
"oooooooooooo..++++++@@@@@@@@@@@@@@@@@@@@@@++++++++++++++++++++++",
"oooooooooooo..$$++++@@@@@@@@@@@@@@@@@@@@@@++++++++++++++++++++++",
"oooooooooooo..$$++++@@@@@@@@@@@@@@@@@@@@@@++++++++++++++++++++++",
"oooooooooooo..$$++++@@@@@@@@@@@@@@@@@@@@@@++++++++++++++++++++++",
"oooooooooooo..$$++++@@@@@@@@@@@@@@@@@@@@@@++++++++++++++++++++++",
"$$oooooooooo$$##++++@@@@@@@@@@@@@@@@@@@@@@@@++++++++++++++++++++",
"$$oooooooooo$$##++++@@@@@@@@@@@@@@@@@@@@@@@@++++++++++++++++++++",
"##$$$$$$$$$$$$##++++@@@@@@@@@@@@@@@@@@@@@@@@++++++++++++++++++++",
"##$$$$$$$$$$$$##++++@@@@@@@@@@@@@@@@@@@@@@@@++++++++++++++++++++",
"++############++++++@@@@@@@@@@@@@@@@@@@@@@@@++++++++++++++++++++",
"++############++++++@@@@@@@@@@@@@@@@@@@@@@@@++++++++++++++++++++",
"++++++++++++++++++++@@@@@@@@@@@@@@@@@@@@@@@@++++++++++++++++++++",
"++++++++++++++++++++@@@@@@@@@@@@@@@@@@@@@@@@++++++++++++++++++++",
"@@++++++++++++++++@@@@@@@@@@@@@@@@@@@@@@@@@@++++++++++++++++++++",
"@@++++++++++++++++@@@@@@@@@@@@@@@@@@@@@@@@@@++++++++++++++++++++",
"@@@@@@@@@@@@@@@@@@@@@@@@@@@@@@@@@@@@@@@@@@@@++++++++++++++++++++",
"@@@@@@@@@@@@@@@@@@@@@@@@@@@@@@@@@@@@@@@@@@@@++++++++++++++++++++",
"@@@@@@@@@@@@@@@@@@@@@@@@@@@@@@@@@@@@@@@@@@++++++++++++++++++++++",
"@@@@@@@@@@@@@@@@@@@@@@@@@@@@@@@@@@@@@@@@@@++++++++++++++++++++++",
"@@@@@@@@@@@@@@@@@@@@@@@@@@@@@@@@@@@@@@@@@@++++++++++++++++++++++",
"@@@@@@@@@@@@@@@@@@@@@@@@@@@@@@@@@@@@@@@@@@++++++++++++++++++++++",
"@@@@@@@@@@@@@@@@@@@@@@@@@@@@@@@@@@@@@@@@@@++++++++++++++++++++++",
"@@@@@@@@@@@@@@@@@@@@@@@@@@@@@@@@@@@@@@@@@@++++++++++++++++++++++",
"@@@@@@@@@@@@@@@@@@@@@@@@@@@@@@@@@@@@@@@@@@++++++++++++++++++++++",
"@@@@@@@@@@@@@@@@@@@@@@@@@@@@@@@@@@@@@@@@@@++++++++++++++++++++++",
"@@@@@@@@@@@@@@@@@@@@@@@@@@@@@@@@@@@@@@@@++++++++++++++++++++++++",
"@@@@@@@@@@@@@@@@@@@@@@@@@@@@@@@@@@@@@@@@++++++++++++++++++++++++",
"@@@@@@@@@@@@@@@@@@@@@@@@@@@@@@@@@@@@@@++++++++++++++++++++++++++",
"@@@@@@@@@@@@@@@@@@@@@@@@@@@@@@@@@@@@@@++++++++++++++++++++++++++",
"++++++@@@@@@@@@@@@@@@@@@@@@@++++++++++++++++++++++++++++++++++++",
"++++++@@@@@@@@@@@@@@@@@@@@@@++++++++++++++++++++++++++++++++++++",
"++++++++++++++++++++++++++++++++++++++++++++++++++++++++++++++++",
"++++++++++++++++++++++++++++++++++++++++++++++++++++++++++++++++",
"++++++++++++++++++++++++++++++++++++++++++++++++++++++++++++++++",
"++++++++++++++++++++++++++++++++++++++++++++++++++++++++++++++++",
"++++++++++++++++++++++++++++++++++++++++++++++++++++++++++++++++",
"++++++++++++++++++++++++++++++++++++++++++++++++++++++++++++++++",
"++++++++++++++++++++++++++++++++++++++++++++++++++++++++++++++++",
"++++++++++++++++++++++++++++++++++++++++++++++++++++++++++++++++",
"++++++++++++++++++++++++++++++++++++++++++++++++++++++++++++++++",
"++++++++++++++++++++++++++++++++++++++++++++++++++++++++++++++++",
"++++++++++++++++++++++++++++++++++++++++++++++++++++++++++++++++",
"++++++++++++++++++++++++++++++++++++++++++++++++++++++++++++++++",
"++++++++++++++++++++++++++++++++++++++++++++++++++++++++++++++++",
"++++++++++++++++++++++++++++++++++++++++++++++++++++++++++++++++"
};
