/* XPM */
static char *_93281db876743c0febdca0742661039eA1z5LrUZpguJpAM[] = {
/* columns rows colors chars-per-pixel */
"64 64 5 1 ",
"  c #163C2B",
". c #296640",
"X c #509B66",
"o c #00ACFF",
"O c #00CCFF",
/* pixels */
"oooooooooooooooooooooooooooooooooooooooooooooooooooooooooooooooo",
"oooooooooooooooooooooooooooooooooooooooooooooooooooooooooooooooo",
"oooooooooooooooooooooooooooooooooooooooooooooooooooooooooooooooo",
"oooooooooooooooooooooooooooooooooooooooooooooooooooooooooooooooo",
"oooooooooooooooooooooooooooooooooooooooooooooooooooooooooooooooo",
"oooooooooooooooooooooooooooooooooooooooooooooooooooooooooooooooo",
"oooooooooooooooooooooooooooooooooooooooooooooooooooooooooooooooo",
"oooooooooooooooooooooooooooooooooooooooooooooooooooooooooooooooo",
"oooooooooooooooooooooooooooooooooooooooooooooooooooooooooooooooo",
"oooooooooooooooooooooooooooooooooooooooooooooooooooooooooooooooo",
"oooooooooooooooooooooooooooooooooooooooooooooooooooooooooooooooo",
"oooooooooooooooooooooooooooooooooooooooooooooooooooooooooooooooo",
"oooooooooooooooooooooooooooooooooooooooooooooooooooooooooooooooo",
"oooooooooooooooooooooooooooooooooooooooooooooooooooooooooooooooo",
"oooooooooooooooooooooooooooooooooooooooooooooooooooooooooooooooo",
"oooooooooooooooooooooooooooooooooooooooooooooooooooooooooooooooo",
"oooooooooooooooooooooooooooooooooooooooooooooooooooooooooooooooo",
"oooooooooooooooooooooooooooooooooooooooooooooooooooooooooooooooo",
"oooooooooooooooooooooooooooooooooooooooooooooooooooooooooooooooo",
"oooooooooooooooooooooooooooooooooooooooooooooooooooooooooooooooo",
"oooooooooooooooooooooooooooooooooooooooooooooooooooooooooooooooo",
"oooooooooooooooooooooooooooooooooooooooooooooooooooooooooooooooo",
"oooooooooooooooooooooooooooooooooooooooooooooooooooooooooooooooo",
"oooooooooooooooooooooooooooooooooooooooooooooooooooooooooooooooo",
"oooooooooooooooooooooooooooooooooooooooooooooooooooooooooooooooo",
"oooooooooooooooooooooooooooooooooooooooooooooooooooooooooooooooo",
"oooooooooooooooooooooooooooooooooooooooooooooooooooooooooooooooo",
"oooooooooooooooooooooooooooooooooooooooooooooooooooooooooooooooo",
"ooooooooooooooooooooooooooooooooooooooooOOOOOOOOOOOOOOOOOOOOOOOO",
"ooooooooooooooooooooooooooooooooooooooooOOOOOOOOOOOOOOOOOOOOOOOO",
"ooooooooooooooooooooooooooooooOOOOOOOOOOOOOOOOOOOOOOOOOOOOOOOOOO",
"ooooooooooooooooooooooooooooooOOOOOOOOOOOOOOOOOOOOOOOOOOOOOOOOOO",
"ooooooooooooooooooooooooooOOOOOOOOOOOOOOOOOOOOOOOOOOOOOOOOOOOOOO",
"ooooooooooooooooooooooooooOOOOOOOOOOOOOOOOOOOOOOOOOOOOOOOOOOOOOO",
"ooooooooooooooooooooooooOOOOOOOOOOOOOOOOOOOOOOOOOOOOOOOOOOOOOOOO",
"ooooooooooooooooooooooooOOOOOOOOOOOOOOOOOOOOOOOOOOOOOOOOOOOOOOOO",
"ooooooooooooooooooooooOOOOOOOOOOOOOOOOOOOOOOOOOOOOOOOOOOOOOOOOOO",
"ooooooooooooooooooooooOOOOOOOOOOOOOOOOOOOOOOOOOOOOOOOOOOOOOOOOOO",
"ooooooooooooooooooooooOOOOOOOOOOOOOOOOOOOOOOOOOOOOOOOOOOOOOOOOOO",
"ooooooooooooooooooooooOOOOOOOOOOOOOOOOOOOOOOOOOOOOOOOOOOOOOOOOOO",
"ooooooooooooooooooooOOOOOOOOOOOOOOOOOOOOOOOOOOOOOOOOOOOOOOOOOOOO",
"ooooooooooooooooooooOOOOOOOOOOOOOOOOOOOOOOOOOOOOOOOOOOOOOOOOOOOO",
"ooooooooooooooooooooOOOOOOOOOOOOOOOOOOOOOOOOOOOOOOOOOOOOOOOOOOOO",
"ooooooooooooooooooooOOOOOOOOOOOOOOOOOOOOOOOOOOOOOOOOOOOOOOOOOOOO",
"ooooooooooooooooooooOOOOOOOOOOOOOOOOOOOOOOOOOOOOOOOOOOOOOOOOOOOO",
"ooooooooooooooooooooOOOOOOOOOOOOOOOOOOOOOOOOOOOOOOOOOOOOOOOOOOOO",
"ooooooooooooooooooooOOOOOOOOOOOOOOOOOOOOOOOOOOOOooooooooOOOOOOOO",
"ooooooooooooooooooooOOOOOOOOOOOOOOOOOOOOOOOOOOOOooooooooOOOOOOOO",
"ooooooooooooooooooOOOOOOOOOOOOOOOOOOOOOOOOoooooooooooooooooooooo",
"ooooooooooooooooooOOOOOOOOOOOOOOOOOOOOOOOOoooooooooooooooooooooo",
"ooooooooooooooooooOOOOOOOOOOOOOOOOOOOOOOOOoooooooooooooooooooooo",
"ooooooooooooooooooOOOOOOOOOOOOOOOOOOOOOOOOoooooooooooooooooooooo",
"ooooooooooooooooooOOOOOOOOOOOOOOOOOOOOOOoooooooooooooooooooooooo",
"ooooooooooooooooooOOOOOOOOOOOOOOOOOOOOOOoooooooooooooooooooooooo",
"ooooooooooooooooooOOOOOOOOOOOOOOOOOOOOOOoooooooooooo      oo    ",
"ooooooooooooooooooOOOOOOOOOOOOOOOOOOOOOOoooooooooooo      oo    ",
"ooooooooooooooooooOOOOOOOOOOOOOOOOOOOOOOoooooooooo  XXXXXX  XXXX",
"ooooooooooooooooooOOOOOOOOOOOOOOOOOOOOOOoooooooooo  XXXXXX  XXXX",
"ooooooooooooooooooOOOOOOOOOOOOOOOOOOOOOOoooooooo  ..XXXXXXXXXXXX",
"ooooooooooooooooooOOOOOOOOOOOOOOOOOOOOOOoooooooo  ..XXXXXXXXXXXX",
"ooooooooooooooooooOOOOOOOOOOOOOOOOOOOOOOOOoooooo  ..XXXXXXXXXXXX",
"ooooooooooooooooooOOOOOOOOOOOOOOOOOOOOOOOOoooooo  ..XXXXXXXXXXXX",
"ooooooooooooooooooOOOOOOOOOOOOOOOOOOOOOOOOoooooo  ..XXXXXXXXXXXX",
"ooooooooooooooooooOOOOOOOOOOOOOOOOOOOOOOOOoooooo  ..XXXXXXXXXXXX"
};
