/* XPM */
static char *_51a8ea4c8bf4347f01c5e00768ba425H7qwdotFabfcxl7k[] = {
/* columns rows colors chars-per-pixel */
"64 64 12 1 ",
"  c #163C2B",
". c #503625",
"X c #755338",
"o c #296640",
"O c #9D7658",
"+ c #509B66",
"@ c #00ACFF",
"# c #00CCFF",
"$ c gray54",
"% c gray59",
"& c #D7F8FF",
"* c #F4FDFF",
/* pixels */
"++++++++++++++++++++++++++++++++++++++++++++++++++++++++++++++++",
"++++++++++++++++++++++++++++++++++++++++++++++++++++++++++++++++",
"++++++++++++++++++++++++++++++++++++++++++++++++++++++++++++++++",
"++++++++++++++++++++++++++++++++++++++++++++++++++++++++++++++++",
"++++++++++++++++++++++++++++++++++++++++++++++++++++++++++++++++",
"++++++++++++++++++++++++++++++++++++++++++++++++++++++++++++++++",
"++++++oo++++++++++++++++++oo++++++++++++++++++oo++++++++++++++++",
"++++++oo++++++++++++++++++oo++++++++++++++++++oo++++++++++++++++",
"++++oo  ++++++oo  ++++oooo  ++++++++oo++++++oo++++++oo++++++oo++",
"++++oo  ++++++oo  ++++oooo  ++++++++oo++++++oo++++++oo++++++oo++",
"oooooo    ++++oo  oooo    ++++++++oo  ++++oo  ++++oo  ++++++  ++",
"oooooo    ++++oo  oooo    ++++++++oo  ++++oo  ++++oo  ++++++  ++",
"      XX  oooo        ..    oooooooo            oooo    ++oo    ",
"      XX  oooo        ..    oooooooo            oooo    ++oo    ",
"XXXXXXXXXX    XXXXXXXXXXXX..        XXXXXXXX..      XXXX    XXXX",
"XXXXXXXXXX    XXXXXXXXXXXX..        XXXXXXXX..      XXXX    XXXX",
"OOOOOOOOOOXXXXOOOOOOOOOOXXXXXXXXXXXXOOOOOOOOXXXXXXXXOOOOXXXXOOOO",
"OOOOOOOOOOXXXXOOOOOOOOOOXXXXXXXXXXXXOOOOOOOOXXXXXXXXOOOOXXXXOOOO",
"OOOOOOOOOOOOOOOO%%$$XXOOOOOOOOOOOOOOOO%%$$OOOOOOOOOOOOOOOOOOOOOO",
"OOOOOOOOOOOOOOOO%%$$XXOOOOOOOOOOOOOOOO%%$$OOOOOOOOOOOOOOOOOOOOOO",
"OOOOOOOOOOOOOOOOXXXXOOOOOOOOOOOOOOOO$$$$XXOOOOOOOOOOOOOOOOOOOOOO",
"OOOOOOOOOOOOOOOOXXXXOOOOOOOOOOOOOOOO$$$$XXOOOOOOOOOOOOOOOOOOOOOO",
"OOOOOOOOOOOOOOOOOOOOOOOOOOOOOOOOOOOOXXXXOOOOOOOOOOOOOOOOOOOOOOOO",
"OOOOOOOOOOOOOOOOOOOOOOOOOOOOOOOOOOOOXXXXOOOOOOOOOOOOOOOOOOOOOOOO",
"**OOOOOOOOOO************OOOOOOOOOOOO**********OOOOOOOOOOOO******",
"**OOOOOOOOOO************OOOOOOOOOOOO**********OOOOOOOOOOOO******",
"&&**********&&&&&&&&&&&&************&&&&&&&&&&************&&&&&&",
"&&**********&&&&&&&&&&&&************&&&&&&&&&&************&&&&&&",
"@@&&&&&&&&&&@@@@@@@@@@@@&&&&&&&&&&&&@@@@@@@@@@&&&&&&&&&&&&@@@@@@",
"@@&&&&&&&&&&@@@@@@@@@@@@&&&&&&&&&&&&@@@@@@@@@@&&&&&&&&&&&&@@@@@@",
"@@@@@@@@@@@@@@@@@@@@@@@@@@@@@@@@@@@@@@@@@@@@@@@@@@@@@@@@@@@@@@@@",
"@@@@@@@@@@@@@@@@@@@@@@@@@@@@@@@@@@@@@@@@@@@@@@@@@@@@@@@@@@@@@@@@",
"####@@@@@@@@########@@@@@@@@@@@@@@@@########@@@@@@@@@@@@@@######",
"####@@@@@@@@########@@@@@@@@@@@@@@@@########@@@@@@@@@@@@@@######",
"################################################################",
"################################################################",
"################################################################",
"################################################################",
"################################################################",
"################################################################",
"################################################################",
"################################################################",
"################################################################",
"################################################################",
"################################################################",
"################################################################",
"################################################################",
"################################################################",
"@@@@@@@@##########@@@@@@@@@@@@@@####################@@@@@@@@@@@@",
"@@@@@@@@##########@@@@@@@@@@@@@@####################@@@@@@@@@@@@",
"@@@@@@@@@@@@@@@@@@@@@@@@@@@@@@@@@@@@@@@@@@@@@@@@@@@@@@@@@@@@@@@@",
"@@@@@@@@@@@@@@@@@@@@@@@@@@@@@@@@@@@@@@@@@@@@@@@@@@@@@@@@@@@@@@@@",
"@@@@@@@@@@@@@@@@@@@@@@@@@@@@@@@@@@@@@@@@@@@@@@@@@@@@@@@@@@@@@@@@",
"@@@@@@@@@@@@@@@@@@@@@@@@@@@@@@@@@@@@@@@@@@@@@@@@@@@@@@@@@@@@@@@@",
"@@@@@@@@@@@@@@@@@@@@@@@@@@@@@@@@@@@@@@@@@@@@@@@@@@@@@@@@@@@@@@@@",
"@@@@@@@@@@@@@@@@@@@@@@@@@@@@@@@@@@@@@@@@@@@@@@@@@@@@@@@@@@@@@@@@",
"@@@@@@@@@@@@@@@@@@@@@@@@@@@@@@@@@@@@@@@@@@@@@@@@@@@@@@@@@@@@@@@@",
"@@@@@@@@@@@@@@@@@@@@@@@@@@@@@@@@@@@@@@@@@@@@@@@@@@@@@@@@@@@@@@@@",
"@@@@@@@@@@@@@@@@@@@@@@@@@@@@@@@@@@@@@@@@@@@@@@@@@@@@@@@@@@@@@@@@",
"@@@@@@@@@@@@@@@@@@@@@@@@@@@@@@@@@@@@@@@@@@@@@@@@@@@@@@@@@@@@@@@@",
"@@@@@@@@@@@@@@@@@@@@@@@@@@@@@@@@@@@@@@@@@@@@@@@@@@@@@@@@@@@@@@@@",
"@@@@@@@@@@@@@@@@@@@@@@@@@@@@@@@@@@@@@@@@@@@@@@@@@@@@@@@@@@@@@@@@",
"@@@@@@@@@@@@@@@@@@@@@@@@@@@@@@@@@@@@@@@@@@@@@@@@@@@@@@@@@@@@@@@@",
"@@@@@@@@@@@@@@@@@@@@@@@@@@@@@@@@@@@@@@@@@@@@@@@@@@@@@@@@@@@@@@@@"
};
