/* XPM */
static char *result[] = {
/* columns rows colors chars-per-pixel */
"64 64 10 1 ",
"  c #141B1B",
". c #163C2B",
"X c #503625",
"o c #554337",
"O c #755338",
"+ c #296640",
"@ c #705849",
"# c #9D7658",
"$ c #997864",
"% c #509B66",
/* pixels */
"%%%%%%%%%%%%%%%%%%%%%%%%%%%%%%%%%%%%%%%%%%%%%%%%%%%%%%%%%%%%%%%%",
"%%%%%%%%%%%%%%%%%%%%%%%%%%%%%%%%%%%%%%%%%%%%%%%%%%%%%%%%%%%%%%%%",
"%%%%%%%%%%%%%%%%%%%%%%%%%%%%%%%%%%%%%%%%%%%%%%%%%%%%%%%%%%%%%%%%",
"%%%%%%%%%%%%%%%%%%%%%%%%%%%%%%%%%%%%%%%%%%%%%%%%%%%%%%%%%%%%%%%%",
"%%%%%%%%%%%%%%%%%%%%%%%%%%++%%%%%%%%%%%%%%%%%%%%%%%%%%%%%%%%%%%%",
"%%%%%%%%%%%%%%%%%%%%%%%%%%++%%%%%%%%%%%%%%%%%%%%%%%%%%%%%%%%%%%%",
"%%%%%%%%%%%%++..++%%%%++++..%%%%%%%%++%%%%%%%%++%%%%%%%%%%%%%%%%",
"%%%%%%%%%%%%++..++%%%%++++..%%%%%%%%++%%%%%%%%++%%%%%%%%%%%%%%%%",
"%%%%%%%%%%%%++..                    ..%%%%++++..%%%%%%++%%%%%%%%",
"%%%%%%%%%%%%++..                    ..%%%%++++..%%%%%%++%%%%%%%%",
"%%%%%%%%++++..  $$$$$$$$$$$$$$$$$$$$  ............++++..%%%%%%%%",
"%%%%%%%%++++..  $$$$$$$$$$$$$$$$$$$$  ............++++..%%%%%%%%",
"%%%%%%++....  $$$$@@@@@@@@@@@@@@@@$$$$  OOOOOOOO........++%%%%%%",
"%%%%%%++....  $$$$@@@@@@@@@@@@@@@@$$$$  OOOOOOOO........++%%%%%%",
"%%%%++..OOOO  $$@@@@$$@@$$@@$$@@$$@@$$  ########OOOOOOXX..++%%%%",
"%%%%++..OOOO  $$@@@@$$@@$$@@$$@@$$@@$$  ########OOOOOOXX..++%%%%",
"%%%%....OO##  $$@@@@$$@@$$@@$$@@$$@@$$  ############OO..%%%%%%%%",
"%%%%....OO##  $$@@@@$$@@$$@@$$@@$$@@$$  ############OO..%%%%%%%%",
"%%%%++..OO##  $$@@@@$$@@$$@@$$@@$$@@$$  ############..++%%%%%%%%",
"%%%%++..OO##  $$@@@@$$@@$$@@$$@@$$@@$$  ############..++%%%%%%%%",
"%%%%%%++..##  $$@@@@$$@@$$@@                    ####..++%%%%%%%%",
"%%%%%%++..##  $$@@@@$$@@$$@@                    ####..++%%%%%%%%",
"%%%%%%++..##  $$$$@@@@@@@@  $$$$$$$$$$$$$$$$$$$$  ##OO..++%%%%%%",
"%%%%%%++..##  $$$$@@@@@@@@  $$$$$$$$$$$$$$$$$$$$  ##OO..++%%%%%%",
"%%%%%%++..##  @@$$$$$$$$  $$$$@@@@@@@@@@@@@@@@$$$$  ##..++%%%%%%",
"%%%%%%++..##  @@$$$$$$$$  $$$$@@@@@@@@@@@@@@@@$$$$  ##..++%%%%%%",
"%%%%++..OO##  @@@@@@@@@@  $$@@@@$$@@$$@@$$@@$$@@$$  ##OO..%%%%%%",
"%%%%++..OO##  @@@@@@@@@@  $$@@@@$$@@$$@@$$@@$$@@$$  ##OO..%%%%%%",
"%%%%++..OO##  @@@@oooooo  $$@@@@$$@@$$@@$$@@$$@@$$  ##..%%%%%%%%",
"%%%%++..OO##  @@@@oooooo  $$@@@@$$@@$$@@$$@@$$@@$$  ##..%%%%%%%%",
"%%%%..OO####  @@oooo@@oo  $$@@@@$$@@$$@@$$@@$$@@$$  ##..%%%%%%%%",
"%%%%..OO####  @@oooo@@oo  $$@@@@$$@@$$@@$$@@$$@@$$  ##..%%%%%%%%",
"%%%%%%..OO##  @@@@oooooo  $$@@@@$$@@$$@@$$@@$$@@$$  ##..++%%%%%%",
"%%%%%%..OO##  @@@@oooooo  $$@@@@$$@@$$@@$$@@$$@@$$  ##..++%%%%%%",
"%%%%%%++..##oooo@@@@@@@@  $$$$@@@@@@@@@@@@@@@@$$$$  ##OO....%%%%",
"%%%%%%++..##oooo@@@@@@@@  $$$$@@@@@@@@@@@@@@@@$$$$  ##OO....%%%%",
"%%%%%%++..####oooooooooo  @@$$$$$$$$$$$$$$$$$$$$@@  ##....%%%%%%",
"%%%%%%++..####oooooooooo  @@$$$$$$$$$$$$$$$$$$$$@@  ##....%%%%%%",
"%%..++++..##############  @@@@@@@@@@@@@@@@@@@@@@@@  ##..%%%%%%%%",
"%%..++++..##############  @@@@@@@@@@@@@@@@@@@@@@@@  ##..%%%%%%%%",
"%%%%....OO##############  @@@@oooooooooooooooo@@@@  ##..++%%%%%%",
"%%%%....OO##############  @@@@oooooooooooooooo@@@@  ##..++%%%%%%",
"%%%%%%..OO##############  @@oooo@@oo@@oo@@oo@@oo@@  ##..++%%%%%%",
"%%%%%%..OO##############  @@oooo@@oo@@oo@@oo@@oo@@  ##..++%%%%%%",
"%%%%++..################  @@@@oooooooooooooooo@@@@  ##OO..%%%%%%",
"%%%%++..################  @@@@oooooooooooooooo@@@@  ##OO..%%%%%%",
"%%%%..OO################oooo@@@@@@@@@@@@@@@@@@@@ooooOO..%%%%%%%%",
"%%%%..OO################oooo@@@@@@@@@@@@@@@@@@@@ooooOO..%%%%%%%%",
"%%%%%%..OO################oooooooooooooooooooooooo##..%%%%%%%%%%",
"%%%%%%..OO################oooooooooooooooooooooooo##..%%%%%%%%%%",
"%%%%++..OO########OOOOOO##########################OO..++%%%%%%%%",
"%%%%++..OO########OOOOOO##########################OO..++%%%%%%%%",
"%%%%%%++..OOOOOOOO......OO##########OOOOOO######OO....++++%%%%%%",
"%%%%%%++..OOOOOOOO......OO##########OOOOOO######OO....++++%%%%%%",
"%%%%%%%%%%........++++++..OO....OOOO......OO......%%%%..%%%%%%%%",
"%%%%%%%%%%........++++++..OO....OOOO......OO......%%%%..%%%%%%%%",
"%%%%%%%%%%%%++..++%%%%%%++..++++....++++++..++++%%%%%%%%%%%%%%%%",
"%%%%%%%%%%%%++..++%%%%%%++..++++....++++++..++++%%%%%%%%%%%%%%%%",
"%%%%%%%%%%%%%%++%%%%%%%%%%++%%%%%%++%%%%%%++%%%%%%%%%%%%%%%%%%%%",
"%%%%%%%%%%%%%%++%%%%%%%%%%++%%%%%%++%%%%%%++%%%%%%%%%%%%%%%%%%%%",
"%%%%%%%%%%%%%%%%%%%%%%%%%%%%%%%%%%%%%%%%%%%%%%%%%%%%%%%%%%%%%%%%",
"%%%%%%%%%%%%%%%%%%%%%%%%%%%%%%%%%%%%%%%%%%%%%%%%%%%%%%%%%%%%%%%%",
"%%%%%%%%%%%%%%%%%%%%%%%%%%%%%%%%%%%%%%%%%%%%%%%%%%%%%%%%%%%%%%%%",
"%%%%%%%%%%%%%%%%%%%%%%%%%%%%%%%%%%%%%%%%%%%%%%%%%%%%%%%%%%%%%%%%"
};
