/* XPM */
static char *result[] = {
/* columns rows colors chars-per-pixel */
"64 64 5 1 ",
"  c #141B1B",
". c #554337",
"X c #705849",
"o c #997864",
"O c #509B66",
/* pixels */
"OOOOOOOOOOOOOOOOOOOOOOOOOOOOOOOOOOOOOOOOOOOOOOOOOOOOOOOOOOOOOOOO",
"OOOOOOOOOOOOOOOOOOOOOOOOOOOOOOOOOOOOOOOOOOOOOOOOOOOOOOOOOOOOOOOO",
"OOOOOOOOOOOOOOOOOOOOOOOOOOOOOOOOOOOOOOOOOOOOOOOOOOOOOOOOOOOOOOOO",
"OOOOOOOOOOOOOOOOOOOOOOOOOOOOOOOOOOOOOOOOOOOOOOOOOOOOOOOOOOOOOOOO",
"OOOOOOOOOOOOOOOOOOOOOOOOOOOOOOOOOOOOOOOOOOOOOOOOOOOOOOOOOOOOOOOO",
"OOOOOOOOOOOOOOOOOOOOOOOOOOOOOOOOOOOOOOOOOOOOOOOOOOOOOOOOOOOOOOOO",
"OOOOOOOOOOOOOOOOOOOOOOOOOOOOOOOOOOOOOOOOOOOOOOOOOOOOOOOOOOOOOOOO",
"OOOOOOOOOOOOOOOOOOOOOOOOOOOOOOOOOOOOOOOOOOOOOOOOOOOOOOOOOOOOOOOO",
"OOOOOOOOOOOOOOOOOOOOOOOOOOOOOOOOOOOOOOOOOOOOOOOOOOOOOOOOOOOOOOOO",
"OOOOOOOOOOOOOOOOOOOOOOOOOOOOOOOOOOOOOOOOOOOOOOOOOOOOOOOOOOOOOOOO",
"OOOOOOOOOOOOOOOOOOOOOOOOOOOOOOOOOOOOOOOOOOOOOOOOOOOOOOOOOOOOOOOO",
"OOOOOOOOOOOOOOOOOOOOOOOOOOOOOOOOOOOOOOOOOOOOOOOOOOOOOOOOOOOOOOOO",
"OOOOOOOOOOOOOOOOOOOOOOOOOOOOOOOOOOOOOOOOOOOOOOOOOOOOOOOOOOOOOOOO",
"OOOOOOOOOOOOOOOOOOOOOOOOOOOOOOOOOOOOOOOOOOOOOOOOOOOOOOOOOOOOOOOO",
"OOOOOOOOOOOOOOOOOOOOOOOOOOOOOOOOOOOOOOOOOOOOOOOOOOOOOOOOOOOOOOOO",
"OOOOOOOOOOOOOOOOOOOOOOOOOOOOOOOOOOOOOOOOOOOOOOOOOOOOOOOOOOOOOOOO",
"OOOOOOOOOOOOOOOOOOOOOO                    OOOOOOOOOOOOOOOOOOOOOO",
"OOOOOOOOOOOOOOOOOOOOOO                    OOOOOOOOOOOOOOOOOOOOOO",
"OOOOOOOOOOOOOOOOOOOO  oooooooooooooooooooo  OOOOOOOOOOOOOOOOOOOO",
"OOOOOOOOOOOOOOOOOOOO  oooooooooooooooooooo  OOOOOOOOOOOOOOOOOOOO",
"OOOOOOOOOOOOOOOOOO  ooooXXXXXXXXXXXXXXXXoooo  OOOOOOOOOOOOOOOOOO",
"OOOOOOOOOOOOOOOOOO  ooooXXXXXXXXXXXXXXXXoooo  OOOOOOOOOOOOOOOOOO",
"OOOOOOOOOOOOOOOOOO  ooXXXXooXXooXXooXXooXXoo  OOOOOOOOOOOOOOOOOO",
"OOOOOOOOOOOOOOOOOO  ooXXXXooXXooXXooXXooXXoo  OOOOOOOOOOOOOOOOOO",
"OOOOOOOOOOOOOOOOOO  ooXXXXooXXooXXooXXooXXoo  OOOOOOOOOOOOOOOOOO",
"OOOOOOOOOOOOOOOOOO  ooXXXXooXXooXXooXXooXXoo  OOOOOOOOOOOOOOOOOO",
"OOOOOOOOOOOOOOOOOO  ooXXXXooXXooXXooXXooXXoo  OOOOOOOOOOOOOOOOOO",
"OOOOOOOOOOOOOOOOOO  ooXXXXooXXooXXooXXooXXoo  OOOOOOOOOOOOOOOOOO",
"OOOOOOOOOOOOOOOOOO  ooXXXXooXXooXXooXXooXXoo  OOOOOOOOOOOOOOOOOO",
"OOOOOOOOOOOOOOOOOO  ooXXXXooXXooXXooXXooXXoo  OOOOOOOOOOOOOOOOOO",
"OOOOOOOOOOOOOOOOOO  ooooXXXXXXXXXXXXXXXXoooo  OOOOOOOOOOOOOOOOOO",
"OOOOOOOOOOOOOOOOOO  ooooXXXXXXXXXXXXXXXXoooo  OOOOOOOOOOOOOOOOOO",
"OOOOOOOOOOOOOOOOOO  XXooooooooooooooooooooXX  OOOOOOOOOOOOOOOOOO",
"OOOOOOOOOOOOOOOOOO  XXooooooooooooooooooooXX  OOOOOOOOOOOOOOOOOO",
"OOOOOOOOOOOOOOOOOO  XXXXXXXXXXXXXXXXXXXXXXXX  OOOOOOOOOOOOOOOOOO",
"OOOOOOOOOOOOOOOOOO  XXXXXXXXXXXXXXXXXXXXXXXX  OOOOOOOOOOOOOOOOOO",
"OOOOOOOOOOOOOOOOOO  XXXX................XXXX  OOOOOOOOOOOOOOOOOO",
"OOOOOOOOOOOOOOOOOO  XXXX................XXXX  OOOOOOOOOOOOOOOOOO",
"OOOOOOOOOOOOOOOOOO  XX....XX..XX..XX..XX..XX  OOOOOOOOOOOOOOOOOO",
"OOOOOOOOOOOOOOOOOO  XX....XX..XX..XX..XX..XX  OOOOOOOOOOOOOOOOOO",
"OOOOOOOOOOOOOOOOOO  XXXX................XXXX  OOOOOOOOOOOOOOOOOO",
"OOOOOOOOOOOOOOOOOO  XXXX................XXXX  OOOOOOOOOOOOOOOOOO",
"OOOOOOOOOOOOOOOOOO....XXXXXXXXXXXXXXXXXXXX....OOOOOOOOOOOOOOOOOO",
"OOOOOOOOOOOOOOOOOO....XXXXXXXXXXXXXXXXXXXX....OOOOOOOOOOOOOOOOOO",
"OOOOOOOOOOOOOOOOOOOO........................OOOOOOOOOOOOOOOOOOOO",
"OOOOOOOOOOOOOOOOOOOO........................OOOOOOOOOOOOOOOOOOOO",
"OOOOOOOOOOOOOOOOOOOOOOOOOOOOOOOOOOOOOOOOOOOOOOOOOOOOOOOOOOOOOOOO",
"OOOOOOOOOOOOOOOOOOOOOOOOOOOOOOOOOOOOOOOOOOOOOOOOOOOOOOOOOOOOOOOO",
"OOOOOOOOOOOOOOOOOOOOOOOOOOOOOOOOOOOOOOOOOOOOOOOOOOOOOOOOOOOOOOOO",
"OOOOOOOOOOOOOOOOOOOOOOOOOOOOOOOOOOOOOOOOOOOOOOOOOOOOOOOOOOOOOOOO",
"OOOOOOOOOOOOOOOOOOOOOOOOOOOOOOOOOOOOOOOOOOOOOOOOOOOOOOOOOOOOOOOO",
"OOOOOOOOOOOOOOOOOOOOOOOOOOOOOOOOOOOOOOOOOOOOOOOOOOOOOOOOOOOOOOOO",
"OOOOOOOOOOOOOOOOOOOOOOOOOOOOOOOOOOOOOOOOOOOOOOOOOOOOOOOOOOOOOOOO",
"OOOOOOOOOOOOOOOOOOOOOOOOOOOOOOOOOOOOOOOOOOOOOOOOOOOOOOOOOOOOOOOO",
"OOOOOOOOOOOOOOOOOOOOOOOOOOOOOOOOOOOOOOOOOOOOOOOOOOOOOOOOOOOOOOOO",
"OOOOOOOOOOOOOOOOOOOOOOOOOOOOOOOOOOOOOOOOOOOOOOOOOOOOOOOOOOOOOOOO",
"OOOOOOOOOOOOOOOOOOOOOOOOOOOOOOOOOOOOOOOOOOOOOOOOOOOOOOOOOOOOOOOO",
"OOOOOOOOOOOOOOOOOOOOOOOOOOOOOOOOOOOOOOOOOOOOOOOOOOOOOOOOOOOOOOOO",
"OOOOOOOOOOOOOOOOOOOOOOOOOOOOOOOOOOOOOOOOOOOOOOOOOOOOOOOOOOOOOOOO",
"OOOOOOOOOOOOOOOOOOOOOOOOOOOOOOOOOOOOOOOOOOOOOOOOOOOOOOOOOOOOOOOO",
"OOOOOOOOOOOOOOOOOOOOOOOOOOOOOOOOOOOOOOOOOOOOOOOOOOOOOOOOOOOOOOOO",
"OOOOOOOOOOOOOOOOOOOOOOOOOOOOOOOOOOOOOOOOOOOOOOOOOOOOOOOOOOOOOOOO",
"OOOOOOOOOOOOOOOOOOOOOOOOOOOOOOOOOOOOOOOOOOOOOOOOOOOOOOOOOOOOOOOO",
"OOOOOOOOOOOOOOOOOOOOOOOOOOOOOOOOOOOOOOOOOOOOOOOOOOOOOOOOOOOOOOOO"
};
