/* XPM */
static char *_36b1e80d65f414789749423e36b02bdYm0V5UIDehv9I3pu[] = {
/* columns rows colors chars-per-pixel */
"96 96 21 1 ",
"  c #497555",
". c #4B7654",
"X c #4C7855",
"o c #4C7956",
"O c #4D7A57",
"+ c #4E7B58",
"@ c #4F7C59",
"# c #507D5C",
"$ c #527F5C",
"% c #537F5C",
"& c #54805D",
"* c #55815E",
"= c #55825F",
"- c #568360",
"; c #578463",
": c #598564",
"> c #5A8665",
", c #5B8666",
"< c #5C8765",
"1 c #5D8866",
"2 c #5D8968",
/* pixels */
"%%%%%%%%%%%%%%%%%%%%%%%%%%%%%%%%%%%%%%%%%%%%%%%%%%%%%%%%%%%%%%%%%%%%%%%%%%%%%%%%%%%%%%%%%%%%%%%%",
"%%%%%%%%%%%%%%%%%%%%%%%%%%%%%%%%%%%%%%%%%%%%%%%%%%%%%%%%%%%%%%%%%%%%%%%%%%%%%%%%%%%%%%%%%%%%%%%%",
"%%%%%%%%%%%%%%%%%%%%%%%%%%%%%%%%%%%%%%%%%%%%%%%%%%%%%%%%%%%%%%%%%%%%%%%%%%%%%%%%%%%%%%%%%%%%%%%%",
"%%%%%%%%%%%%%%%%%%%%%%%%%%%%%%%%%%%%%%%%%%%%%%%%%%%%%%%%%%%%%%%%%%%**%%%%%%%%%%%%%%%%%%%%%%%%%%%",
"%%%%%%%%%%%%%%%%%%%%%%%%%%%%%%%%%%%%%%%%%%%%%%%%%%%%%%%%%%%%%%%%%%%::-%%%%%%%%%%%%%%%%%%%%%%%%%%",
"%%%%%%%%%%%%%%%%%%%%%%%%%%%%%-;%%%%%%%%%%%%%%%%%%%%%%%%%%%%%%%%%%%%%.+%%%%%%%%%%%%%%%%%%%%%%%%%%",
"%%%%%%%%%%%%%%%%%%%%%%%%%%%%%-:*%%%%%%%%%%%%%%%%%%%%%%%%%%%%%%%%%%%%%%%%%%%%%%%%%%%%%%%%%%%%%%%%",
"%%%%%%%%%%%%%%%%%%%%%%%%%%$,:%%%%%%%%%%%%%%%%%%%%%%%%%%%%%%%%%%%%%%%%%%%%%%%%%%%%%%%%%%%%%%%%%%%",
"%%%%%%%%%%%%%%%%%%%%%%%%%%--:%.*22:%%%%%%%%%%%%%%%%%%%%%%%%%%%%%%%%%%%%%%%%%%%%%%%%%%%%%%%%%%%%%",
"%%%%%%%%%%%%%%%%%%%%%%%%%-,$%-%-::%%%%%%%%%%%%%%%%%%%%%$%%%%%%%%%%%%%%%%%%%%%%%%%%%%%%%%%%%%%%%%",
"%%%%%%%%%%%%%%%%%%%%%%%%%%@,%o*-O@%%%%%%%%%%%%%%%%%%%%$$--%%%%%%%%%%%%%%%%%%%%%%%%%%%%%%%%%%%%%%",
"%%%%%%%%%%%%%%%%%%%%%%%%%%@O-@.O%%%%%%%%%%%%%%%%%%%-2,$-,%%%%%%%%%%%%%%%%%%%%%%%%%*%%%%%%%%%%%%%",
"%%%%%%%%%%%%%%%%%%%%%%%%%%%@%-@%%%%%%%%%%%%%%%%%%%%%#,;,:%%%%%%%%%%%%%%%%%%%%%%%%::*%%%%%%%%%%%%",
"%%%%%%%%%%%%%%%%%%%%%%%%%%%-%O%%%%%%%%%%%%%%%%%%%%%%@@+@O%%%%%%%%%%%%%%%%%%%%%-%--O%%%%%%%%%%%%%",
"%%%%%%%%%%%%%%%%%%%%%%%%%%%%%%%%%%%%%%%%%%%%%%%%%%%%$#@+%%%%%%%%%%%%%%%%%%%%%-2:**O%%%%%%%%%%%%%",
"%%%%%%%%%%%%%%%%%%%%%%%%%%%%%%%%%%%%%%%%%%%%%%%%%%%%$@-%%%%%%%%%%%%%%%%%%%%%%%%-%.@%%%%%%%%%%%%%",
"%%%%%%%%%%%%%%%%%%%%%%%%%%%%%%%%%%%%%%%%%%%%%%%%%%%%%%%%%%%%%%%%%%%%%%%%%%%%%%%++%%%%%%%%%%%%%%%",
"%%%%%%%%%%%%%%%%%%%%%%%%%%%%%%%%%%%%%%%%%%%%%%%%%%%%%%%%%%%%%%%%%%%%%%%%%%%%%%%%%%%%%%%%%%%%%%%%",
"%%%%%%%%%%%%%%%%%%%%%%%%%%%%%%%%%%%%%%%%%%%%%%%%%%%%%%%%%%%%%%%%%%%%%%%%%%%%%%%%%%%%%%%%%%%%%--%",
"%%%%%%%%%%%%%%%%%%%%%%%%%%%%%%%%%%%%%%%%%%%%%%%%%%%%%%%%%%%%%%%%%%%%%%%%%%%%%%%%%%%%%%%%-,2%-:%%",
"%%%%%%%%%%%%%%%%%%%%%%%%%%%%%%%%%%%%%%%%%%%%%%%%%%%%%%%%%%%%%%%%%%%%%%%%%%%%%%%%%%%%%%%%%2:-,,%%",
"%%%%%%%%%%%%%%%%%%%%%%%%%%%%%%%%%%%%%%%%%%%%%%%%%%%%%%%%%%%%%%%%%%%%%%%%%%%%%%%%%%%%%%%%%+%-;$%%",
"%%%%%%%%%%%%%%%%%%%%%%%%%%%%%%%%%%%%%%%%%%%%%%%%%%%%%%%%%%%%%%%%%%%%%%%%%%%%%%%%%%%%%%%%%%#%$@%%",
"%%%%%%%%%%%%%%%%%%%%%%%%%%%%%%%%%%%%%%%%%%%%%%%%%%%%%%%%%%%%%%%%%%%%%%%%%%%%%%%%%%%%%%%%%%%@@%%%",
"%%%%%%%%%%%%%%%%%%%%%%%%%%%%%%%%%%%%%%%%%%%%%%%%%%%%%%%%%%%%%%%%%%%%%%%%%%%%%%%%%%%%%%%%%%%%%%%%",
"%%%%%%%%%%%%%%%%%%%%%%%%%%%%%%%%%%%%%%%%%%%%%%%%%%%%%%%%%%%%%%%%%%%%%%%%%%%%%%%%%%%%%%%%%%%%%%%%",
"%%%%%%%%%%%%%%%%%%%%%%%%%%%%%%%%%%%%%%%%%%%%%%%%%%%%%%%%%%%%%%%%%%%%%%%%%%%%%%%%%%%%%%%%%%%%%%%%",
"%%%%%%%%%%%%%%%%%%%%%%%%%%%%%%%%%%%%%%%%%%%%%%%%%%%%%%%%%%%%%%%%%%%%%%%%%%%%%%%%%%%%%%%%%%%%%%%%",
"%%%%%%%%%%%%%%%%%%%%%%%%%%%%%%%%%%%%%%%%%%%%%%%%%%%%%%%%%%%%%%%%%%%%%%%%%%%%%%%%%%%%%%%%%%%%%%%%",
"%%%%%%%%%%%%%%%%%%%%%%%%%%%%%%%%%%%%%%%%%%%%%%%%%%%%%%%%%%%%%%%%%:2%%%-%%%%%%%%%%%%%%%%%%%%%%%%%",
"%%%%%%%%%%%%%%%%%%%%%%%%%%%%%%%%%%%%%%%%%%%-%%%%%%%%%%%%%%%%%%%%%%:;%;;%%%%%%%%%%%%%%%%%%%%%%%%%",
"%%%%%%%%%%%%%%%%%%%%%%%%%%%%%%%%%%%%%%%,,%-:%%%%%%%%%%%%%%%%%%%-:-#:;-%%%%%%%%%%%%%%%%%%%%%%%%%%",
"%%%%%%%%%%%%%%%%%%%%%%%%%%%%%%%%%%%%%%%-2:%@-;,-%%%%%%%%%%%%%%%%-:-.-%@$$$%%%%%%%%%%%%%%%%%%%%%%",
"%%%%%%%%%%%%%%%%%%%%%%%%%%%%%%%%%%%%%%%%-:%O---%%%%%%%%%%%%%%%%%%--.-O@%$$%%%%%%%%%%%%%%%%%%%%%%",
"%%%%%%%-:%%%%%%%%%%%%%%%%%%%%%%%%%%%%%%:@-,@-% @%%%%%%%%%%%%%%%%%+-%%@%%%%%%%%%%%%%%%%%%%%%%%%%%",
"%%%-2-%%--%-%%%%%%%%%%%%%%%%%%%%%%%%%%%+-@%% +%%%%%%%%%%%%%%%%%%%%%%%%%%%%%%%%-:%%%%%%%%%%%%%%%%",
"%%%%#::%+--+%%%%%%%%%%%%%%%%%%%%%%%%%%%%%%@%%%%%%%%%%%%%%%%%%%%%%%%%%%%%%%%$;--:%%%%%%%%%%%%%%%%",
"%%%--#--%%%+%%%%%%%%%%%%%%%%%%%%%%%%%%%%%%%%%%%%%%%%%%%%%%%%%%%%%%%%%%%%%%%$+:-+%%%%%%%%%%%%%%%%",
"%%%#$$ @%++%%%%%%%%%%%%%%%%%%%%%%%%%%%%%%%%%%%%%%%%%%%%%%%%%%%%%%%%%%%%%%%%%+$%$%%%%%%%%%%%%%%%%",
"%%%%$$@@%%%%%%%%%%%%%%%%%%%%%%%%%%%%%%%%%%%%%%%%%%%%%%%%%%%%%%%%%%%%%%%%%%%%%%%%%%%%%%%%%%%%%%%%",
"%%%%%%%%%%%%%%%%%%%%%%%%%%%%%%%%%%%%%%%%%%%%%%%%%%%%%%%%%%%%%%%%%%%%%%%%%%%%%%%%%%%%%%%%%%%%%%%%",
"%%%%%%%%%%%%%%%%%%%%%%%%%%%%%%%%%%%%%%%%%%%%%%%%%%%%%%%%%%%%%%%%%%%%%%%%%%%%%%%%%%%%%%%%%%%%:;%%",
"%%%%%%%%%%%%%%%%%%%%%%%%%%%%%%%%%%%%%%%%%%%%%%%%%%%%%%%%%%%%%%%%%%%%%%%%%%%%%%%%%%%%%%%%%%%,,%%%",
"%%%%%%%%%%%%%%%%%%%%%%%%%%%%-%%%%%%%%%%%%%%%%%%%%%%%%%%%%%%%%%%%%%%%%%%%%%%%%%%%%%%%%%%%%%%-O%%%",
"%%%%%%%%%%%%%%%%%%%%%%%%%%%$,-%%%:,%%%%%%%%%%%%%%%%%%%%%%%%%%%%%%%%%%%%%%%%%%%%%%%%%%%%%%%%%%%%%",
"%%%%%%%%%%%%%%%%%%%%%%%%%%%%+-%-:,-%%%%%%%%%%%%%%%%%%%%%%%%%%%%%%%%%%%%%%%%%%%%%%%%%%%%%%%%%%%%%",
"%%%%%%%%%%%%%%%%%%%%%%%%%%%%% +;::%%%%%%%%%%%%%%%%%%%%%%%%%%%%%%%%%%%%%%%%%%%%%%%%%%%%%%%%%%%%%%",
"%%%%%%%%%%%%%%%%%%%%%%%%%%%%%@%;;%%%%%%%%%%%%%%%%%%%%%%%%%%%%%%%%%%%%%%%%%%%%%%%%%%%%%%%%%%%%%%%",
"%%%%%%%%%%%%%%%%%%%%%%%%%%%%%%%oo#%%%%%%%%%%%%%%%%%%%%%%%%%%%%%%%%%%%%%%%%%%%%%%%%%%%%%%%%%%%%%%",
"%%%%%%%%%%%%%%%%%%%%%%%%%%%%%%%%%%%%%%%%%%%%%%%%%%%%%%%%%%%%%%%%%%%%%%%%%%%%%%%%%%%%%%%%%%%%%%%%",
"%%%%%%%%%%%%%%%%%%%%%%%%%%%%%%%%%%%%%%%%%%%%%%%%%%%%%%%%%%%%%%%%%%%%%%%%%%%%%%%%%%%%%%%%%%%%%%%%",
"%%%%%%%%%%%%%%%%%%%%%%%%%%%%%%%%%%%%%%%%%%%%%%%%%%%%%%%%%%%%%%%%%%%%%%%%%%%%%%%%%%%%%%%%%%%%%%%%",
"%%%%%%%%%%%%%%%%%%%%%%%%%%%%%%%%%%-2$$%%%%%%%%%%%%%%%%%%%%%%%%%%%%%%%%%%%%%%%%%%%%%%%%%%%%%%%%%%",
"%%%%%%%%%%%%%%%%%%%%%%%%%%%%%%%%%%%-;%--%%%%%%%%%%%%%%%%%%%%%%%%%%%%%%%%%%%%%%%%%%%%%%%%%-%%%-%%",
"%%%%%%%%%%%%%%%%%%%%%%%%%%%%%%%%%%%+@-:,-%%%%%%%%%%%%%%%%%%%%%%%%%%%%%%%%%%%%%%%%%%%%%%%%,:%-:-%",
"%%%%%%%%%%%%%%%%%%%%%%%%%%%%%%%%%%%%%;%%%%%%%%%%%%%%%%%%%%%%%%%%%%%%%%%%%%%%%%%%%%%%%%%%%::--+%%",
"%%%%%%%%%%%%%-,;%*:-%%%%%%%%%%%%%%%%%%#%%%%%%%%%%%%%%%%%%%%%%%%%%%%%%%%%%%%%%%%%%%%%%%%%%+X%%+%%",
"%%%%%%%%%%%%%%%:%-;%%%%%%%%%%%%%%%%%%%%%%%%%%%%%%%%%%%%%%%%%%%%%%%%%%%%%%%%%%%%%%%%%%%%%%%%%+%%%",
"%%%%%%%%%%%%%%#--+O%%%%%%%%%%%%%%%%%%%%%%%%%%%%%%%%%%%%%%%%%%--%%%%%%%%%%%%%%%%%%%%%%%%%%%%%%%%%",
"%%%%%%%%%%%%%%%.X%%%%%%%%%%%%%%%%%%%%%%%%%%%2%%%%%%%%%%%%%%%%;--2:%%%%%%%%%%%%%%%%%%%%%%%%%%%%%%",
"%%%%%%%%%%%%%%%@#%%%%%%%%%%%%%%%%%%%%%%%%%%;;%%%%%%%%%%%%$;%%-%;2;%%%%%%%%%%%%%%%%%%%%%%%%%%%%%%",
"%%%%%%%%%%%%%%%%%%%%%%%%%%%%%%%%%%%%%%%%%%%,%%%%%%%%%%%%%%%2;+-;%%%%%%%%%%%%%%%%%%%%%%%%%%%%%%%%",
"%%%%%%%%%%%%%%%%%%%%%%%%%%%%%%%%%%%%%%%%%%$$%-%%%%%%%%%%%%@$-%-%--%%%%%%%%%%%%%%%%%%%%%%%%%%%%%%",
"%%%%%%%%%%%%%%%%%%%%%%%%%%%%%%%%%%%%%%%%$$$@;;%%%%%%%%%%%%%%@%++%%%%%%%%%%%%%%%%%%%%%%%%%%%%%%%%",
"%%%%%%%%%%%%%%%%%%%%%%%%%%%%%%%%%%%%%%%%%%%%OO%%%%%%%%%%%%%%%%%%%%%%%%%%%%%%%%%%%%%%%%%%%%%%%%%%",
"%%%%%%%%%%%%%%%%%%%%%%%%%%%%;-%%%$-%%%%%%%%%%%%%%%%%%%%%%%%%%%%%%%%%%%%%%%%%%%%%%%%%%%%%%%%%%%%%",
"%%%%%%%%%%%%%%%%%%%%%%%%%%%%-2-%;,-%%%%%%%%%%%%%%%%%%%%%%%%%%%%%%%%%%%%%%%%%%%%%%%%%%%%%%%%%%%%%",
"%%%%%%%%%%%%%%%%%%%%%%%%%%$,,@@-:@@%%%%%%%%%%%%%%%%%%%%%%%%%%%%%%%%%%%%%%%%%%%%%%%%%%%%%%%%%%%%%",
"%%%%%%%%%%%%%%%%%%%%%%%%%%%$-%%%OO@%%%%%%%%%%%%%%%%%;,-%%%%%%%%%%%%%%%%%%%%%%%%%%%%%%%%%%%%%%%%%",
"%%%%%%%%%%%%%%%%%%%%%%%%%%%$+-%%%%*%%%%%%%%%%%%%%%%$$,:%%%%%%%%%%%%%%%%%%%%%%%%%%%%%%%%%%%%%%%%%",
"%%%%%%%%%%%%%%%%%%%%%%%%%%%%%%%%%%%%%%%%%%%%%%%%%%$$#@%%%%%%%%%%%%%%%%%%%%%%%%%%%%%%%%%%%%%%%%%%",
"%%%%%%%%%%%%%%%%%%%%%%%%%%%%%%%%%%%%%%%%%%%%%%%%%%$$$-@%%%%%%%%%%%%%%%%%%%%%%%%%%%%%%%%%%%%%%%%%",
"%%%%%%%%%%%%%%%%%%%%%%%%%%%%%%%%%%%%%%%%%%%%%%%%%%%%%%%%%%%%%%%%%%%%%%%%%%%%%%%%%%%%%%%%%%%%%%%%",
"%%%%%%%%%%%%%%%%%%%%%%%%%%%%%%%%%%%%%%%%%%%%%%%%%%%%%%%%%%%%%%%%%%%%%%%%%%%%%%%%%%%%%%%%%%%%%%%%",
"%%%%%%%%%%%%%%%%%%%%%%%%%%%%%%%%%%%%%%%%%%%%%%%%%%%%%%%%%%%%%%%%%%%%%%%%%%%%%%%%%%%%%%%%%%%%%%%%",
"%%%%%%%%%%%%%%%%%%%%%%%%%%%%%%%%%%%%%%%%%%%%%%%%%%%%%%%%%%%%%%%%%%%%%%%%%%%%%%%%%%%%%%%%%%%%%%%%",
"%%%--%%%%%%%%%%%%%%%%%%%%%%%%%%%%%%%%%%%%%%%%%%%%%%%%%%%%%%%%%%%%%%%%%%%%%%%%%%%%%%%%%%%%%%%%%%%",
"%%%$:%%%%%%%%%%%%%%%%%%%%%-:%%%%%%%%%%%%%%%%%%%%%%%%%%%%%%%%%%%%%%%%%%%%%%%%%%%%%%%%%%%%%%%%%%%%",
"%%%%--%%%%%%%%%%%%%%%%%%%%%2-%-%%%%%%%%%%%%%%%%%%%%%%%%%%%%%%%%%%%%%:,%%%%%%%%%%%%%%%%%%%%%%%%%%",
"%%%,@%%%%%%%%%%%%%%%%%%%%%%%:-:-%%%%%%%%%%%%%%%%%%%%%%%%%%%%%%%%%%%-,@%%%%%%%%%%%%%%%%%%%%%%%%%%",
"%%%%$%%%%%%%%%%%%%%%%%%%%%%@;,,%%%%%%%%%:-%--%%%%%%%%%%%%%%%%%%%%%%%%%%%%%%%%%%%%%%%%%%%%%%%%%%%",
"%%$+%%%%%%%%%%%%%%%%%%%%%%%@@%@%%%%%%%%%-%-,-%%%%%%%%%%%%%%%%%%%%%%##%%%%%%%%%%%%%%%%%%%%%%%%%%%",
"%%%%%%%%%%%%%%%%%%%%%%%%%%%%$$$$%%%%%%;-+%:*%%%%%%%%%%%%%%%%%%%%%%%%%%%%%%%%%%%%%%%%%%$$%%:%%%%%",
"%%%%%%%%%%%%%%%%%%%%%%%%%%%%$$$$%%%%%%--*-*%:%%%%%%%%%%%%%%%%%%%%%%%%%%%%%%%%%%%%%%%%$$-%;-%:2-%",
"%%%%%%%%%%%%%%%%%%%%%%%%%%%%%%%%%%%%%%%%%++*@%%%%%%%%%%%%%%%%%%%%%%%%%%%%%%%%%%%%%%%%%$$--+;-#%%",
"%%%%%%%%%%%%%%%%%%%%%%%%%%%%%%%%%%%%%%%%%%%%%%%%%%%%%%%%%%%%%%%%%%%%%%%%%%%%%%%%%%%%%%$@:-%;#,;%",
"%%%%%%%%%%%%%%%%%%%%%%%%%%%%%%%%%%%;-%%%%%%%%%%%%%%%%%%%%%%%%%%%%%%%%%%%%%%%%%%%%%%%%%%@%%--%-%%",
"%%%%%%%%%%%%%%%%%%%%%%%%%%%%%%%%%%-::-%%%%%%%%%%%%%%%%%%%%%%%%%%%%%%%%%%%%%%%%%%%%%%%%%%@%%+%+%%",
"%%$%,:-%%-,%%%%%%%%%%:%%%%%%%%%%%%%@*-%%%%%%%%%%%%%%%,;%%,;%%%%%%%%%%%%%%%%%%%%%%%-2,%%%%%%%%%%%",
"%%$;:;;%;%%%%%%%%%%%%%;%%%%%%%%%%%%%+@%%%%%%%%%%%%%-:--%;;%%%%%%%%%%%%%%%%%%%%%%%%%$;:;%%%%%%%%%",
"%%%,2%++:$$%%%%%%%%%%%#%%%%%%%%%%%%%%%%%%%%%%%%%%%%$,;%+:%$%%%%%%%%%%%%%%%%%%%%%%%%%++@$%%%%%%%%",
"%%%$%-%%%#$%%%%%%%%%%%%%%%%-%%%%%%%%%%%%%%%%%%%%%%%%@--$$#$%%%%%%%%%%%%%%%%%%%%%%%%%%%%%%%%%%%%%",
"%%%%%%%%%%%%:;$%;%%%%%%%%%%2%-:%%%%%%%%%%%%%$;::%%%%%%$%%%%%%%%%%%%%%%%%%%%%%%%%%%%%%%%%%%%%%%%%",
"%%%%%%%%%%%%%2;,%%%%%%%%%%$#,%-%%%%%%%%%%%:%:,:-%%%%%%%%%%%%%%%%%%%%%%%%%%%%%%%%%%%%%%%%%%%%%%%%",
"%%%%%%%%%%%%%%##%%%%%%%%%%$#$@#%%%%%%%%%%*,;%@@%%%%%%%%%%%%%%%%%%%%%%%%%%%%%%%%%%%%%%%%%%%%%%%%%",
"%%%%%%%%%%%%%$@@%%%%%%%%%%%$#%%%%%%%%%%%%%%:%%%%%%%%%%%%%%%%%%%%%%%%%%%%%%%%%%%%%%%%%%%%%%%%%%%%"
};
