/* XPM */
static char *result[] = {
/* columns rows colors chars-per-pixel */
"128 128 55 1 ",
"  c #509B66",
". c #4F9B65",
"X c #4E9A64",
"o c #4D9964",
"O c #4F9A65",
"+ c #4D9963",
"@ c #4C9962",
"# c #5AA16F",
"$ c #70AD82",
"% c #7CB48C",
"& c #B5D5BE",
"* c #DAEADF",
"= c #4B9861",
"- c #499760",
"; c #79B38B",
": c #D7EADF",
"> c white",
", c #48965F",
"< c #78B38A",
"1 c #D6EADF",
"2 c #78B28A",
"3 c #59A06E",
"4 c #6EAB80",
"5 c #76B088",
"6 c #75AF87",
"7 c #98BC99",
"8 c #DED6BD",
"9 c #FFE4D1",
"0 c #DFD7BE",
"q c #9ABE9B",
"w c #AECEB7",
"e c #CEE0D5",
"r c #CCE0D5",
"t c #D8D0B7",
"y c #F3B180",
"u c #FFA162",
"i c #FFA161",
"p c #F5B482",
"a c #4C9963",
"s c #79B189",
"d c #D0E0D5",
"f c #FDFAFF",
"g c #FCFAFF",
"h c #FBDAC7",
"j c #FE9E5E",
"k c #FF7D26",
"l c #FF7D25",
"z c #FE9E5F",
"x c #D7CFB6",
"c c #F0AF7D",
"v c #75B087",
"b c #96BA97",
"n c #4A9860",
"m c #48975F",
"M c #4B9862",
/* pixels */
"                                                                                                                                ",
"                                                                                                                                ",
"                                                                                                                                ",
"                                                                                                                                ",
"                                                                                                                                ",
"                                                                                                                                ",
"                                                                                                                                ",
"                                                                                                                                ",
"                                                                                                                                ",
"                                                                                                                                ",
"                                                                                                                                ",
"                                                                                                                                ",
"                                                                                                                                ",
"                                                                                                                                ",
"                                                                                                                                ",
"                                                                                                                                ",
"                                                                                                                                ",
"                                                                                                                                ",
"                                                                                                                                ",
"                                                                                                                                ",
"                                                                                                                                ",
"                                                                                                                                ",
"                                                                                                                                ",
"                                                                                                                                ",
"                                                                                                                                ",
"                                                                                                                                ",
"                                                                                                                                ",
"                                                                                                                                ",
"                                                                                                                                ",
"                                                                                                                                ",
"                                                                                                                                ",
"                                                                                                                                ",
"                                                                                                                                ",
"                                                                                                                                ",
"                                                                                                                                ",
"                                                                                                                                ",
"                                                                                                                                ",
"                                                                                                                                ",
"                                                                                                                                ",
"                                                                                                                                ",
"                                                                                                                                ",
"                                                                                                                                ",
"                                                                                                                                ",
"                                                                                                                                ",
"                                                                                                                                ",
"                                                                                                                                ",
"                                                                                                                                ",
"                                                                                                                                ",
"                                                                                                                                ",
"                                                                                                                                ",
"                                                                                                                                ",
"                                                                                                                                ",
"                                                                                                                                ",
"                                                                                                                                ",
"                                                                                                                                ",
"                                                                                                                                ",
"                                                                                                                                ",
"                                                                                                                                ",
"                                                                                                                                ",
"                                                                                                                                ",
"                                                                                                                                ",
"                                                                                                                                ",
"                                                                                                                                ",
"                                                                                                                                ",
"                                                                                                                                ",
"                                                                                                                                ",
"                                                                                                                                ",
"                                                                                                                                ",
"                                                                                                                                ",
"                                                                                                                                ",
"                                                                                                                                ",
"                                                                                                                                ",
"                                                                                                                                ",
"                                                                                                                                ",
"                                                                                                                                ",
"                                                                                                                                ",
"                                                                                                                                ",
"                                                                                                                                ",
"                                                                                                                                ",
"                                                                                                                                ",
"                                                                                                                                ",
"                   .XooX.                                                                                                       ",
"                   O+@@+O                                                                                                       ",
"                 .O#$%%$#O.                                                                                                     ",
"                 X+$&**&$+X                                                                                                     ",
"               .X=-;:>>:;-=X.                                                                                                   ",
"               .+-,<1>>12,-+O                                                                                                   ",
"             ..345678990q2;$#O.                                                                                                 ",
"             X+4wertyuip01:&$+X                                                                                                 ",
"             Xasdfghjkli9>>*%@o                                                                                                 ",
"             Xasdfghzkku9>>*%@o                                                                                                 ",
"             X+4werxczjy81:&$+X                                                                                                 ",
"             ..345vbxhht7<;$#O.                                                                                                 ",
"               .+nmvrggr6,-+O          .XooX.                                                                                   ",
"               .XMn5effe5-=X.          O+@@+O                                                                                   ",
"                 X+4wddw4+X          .O#$%%$#O.                                                                                 ",
"                 ..34ss43..          X+$&**&$+X                                                                                 ",
"                   .+aa+.          .X=-;:>>:;-=X.                                                                               ",
"                   .XXXX.          .+-,<1>>12,-+O                                                                               ",
"                                 ..345678990q2;$#O.                                                                             ",
"                                 X+4wertyuip01:&$+X                                                                             ",
"               .XooX.            Xasdfghjkli9>>*%@o                                                                             ",
"               O+@@+O            Xasdfghzkku9>>*%@o                                                                             ",
"             .O#$%%$#O.          X+4werxczjy81:&$+X                                                                             ",
"             X+$&**&$+X          ..345vbxhht7<;$#O.                                                                             ",
"           .X=-;:>>:;-=X.          .+nmvrggr6,-+O                                                                               ",
"           .+-,<1>>12,-+O          .XMn5effe5-=X.                                                                               ",
"         ..345678990q2;$#O.          X+4wddw4+X                                                                                 ",
"         X+4wertyuip01:&$+X          ..34ss43..                                                                                 ",
"         Xasdfghjkli9>>*%@o            .+aa+.                                                                                   ",
"         Xasdfghzkku9>>*%@o            .XXXX.                                                                                   ",
"         X+4werxczjy81:&$+X                                                                                                     ",
"         ..345vbxhht7<;$#O.                                                                                                     ",
"           .+nmvrggr6,-+O                                                                                                       ",
"           .XMn5effe5-=X.                                                                                                       ",
"             X+4wddw4+X                                                                                                         ",
"             ..34ss43..                                                                                                         ",
"               .+aa+.                                                                                                           ",
"               .XXXX.                                                                                                           ",
"                                                                                                                                ",
"                                                                                                                                ",
"                                                                                                                                ",
"                                                                                                                                ",
"                                                                                                                                ",
"                                                                                                                                ",
"                                                                                                                                ",
"                                                                                                                                ",
"                                                                                                                                "
};
