/* XPM */
static char *_efa89b5365d4984c06b43347c4a5c82aMyn7kbzPLUkSU4y[] = {
/* columns rows colors chars-per-pixel */
"64 64 3 1 ",
"  c None",
". c gray24",
"X c #99E550",
/* pixels */
"                                                                ",
"                                                                ",
"                                                                ",
"                                                                ",
"                                                                ",
"                                                                ",
"                                                                ",
"                                                                ",
"                                                                ",
"                                                                ",
"                            ........                            ",
"                            ........                            ",
"                        ................                        ",
"                        ................                        ",
"                      ....................                      ",
"                      ....................                      ",
"                      ....................                      ",
"                      ....................                      ",
"                      ....................                      ",
"                      ....................                      ",
"                      ....................                      ",
"                      ....................                      ",
"                      ....................                      ",
"                      ....................                      ",
"                    ........................                    ",
"                    ........................                    ",
"                      ....................                      ",
"                      ....................                      ",
"                          ............                          ",
"                          ............                          ",
"                              ....                              ",
"                              ....                              ",
"                          XX........XX                          ",
"                          XX........XX                          ",
"                        XX............XX                        ",
"                        XX............XX                        ",
"                        XX............XX                        ",
"                        XX............XX                        ",
"                      XXXX............XXXX                      ",
"                      XXXX............XXXX                      ",
"                      XXXX............XXXX                      ",
"                      XXXX............XXXX                      ",
"                    XXXXXX............XXXXXX                    ",
"                    XXXXXX............XXXXXX                    ",
"                    XXXX................XXXX                    ",
"                    XXXX................XXXX                    ",
"                    XXXX................XXXX                    ",
"                    XXXX................XXXX                    ",
"                        ......    ......                        ",
"                        ......    ......                        ",
"                        ......    ......                        ",
"                        ......    ......                        ",
"                          ....    ....                          ",
"                          ....    ....                          ",
"                          ....    ....                          ",
"                          ....    ....                          ",
"                          ....    ....                          ",
"                          ....    ....                          ",
"                            ..    ..                            ",
"                            ..    ..                            ",
"                            ..    ..                            ",
"                            ..    ..                            ",
"                          ....    ....                          ",
"                          ....    ....                          "
};
