/* XPM */
static char *eea6126dab774c0ad700b535a1862c57yO7AxsAM8pME98Ht[] = {
/* columns rows colors chars-per-pixel */
"64 64 5 1 ",
"  c None",
". c black",
"X c gray24",
"o c #99E550",
"O c white",
/* pixels */
"                                                                ",
"                                                                ",
"                                                                ",
"                                                                ",
"                                                                ",
"                                                                ",
"                                                                ",
"                                                                ",
"                                                                ",
"                            XXXXXXXX                            ",
"                            XXXXXXXX                            ",
"                        XXXXXXXXXXXXXXXX                        ",
"                        XXXXXXXXXXXXXXXX                        ",
"                      XXXXXXXXXXXXXXXXXXXX                      ",
"                      XXXXXXXXXXXXXXXXXXXX                      ",
"                      XXXXXXXXXXXXXXXXXXXX                      ",
"                      XXXXXXXXXXXXXXXXXXXX                      ",
"                      XXXXXXXXXXXXXXXXXXXX                      ",
"                      XXXXXXXXXXXXXXXXXXXX                      ",
"                      XXXXXXXXXXXXXXXXXXXX                      ",
"                      XXXXXXXXXXXXXXXXXXXX                      ",
"                      XXXXOOXXXXXXXXOOXXXX                      ",
"                      XXXXOOXXXXXXXXOOXXXX                      ",
"                    XXXXXXOOXXXXXXXXOOXXXXXX                    ",
"                    XXXXXXOOXXXXXXXXOOXXXXXX                    ",
"                      XXXXXXXXXXXXXXXXXXXX                      ",
"                      XXXXXXXXXXXXXXXXXXXX                      ",
"                          XXXXXXXXXXXX                          ",
"                          XXXXXXXXXXXX                          ",
"                              XXXX                              ",
"                              XXXX                              ",
"                          ooXXXXXXXX                            ",
"                          ooXXXXXXXX                            ",
"                        ooXXXXXXXXXXXX                          ",
"                        ooXXXXXXXXXXXX                          ",
"                        ooXXXXXXXXXXXX                          ",
"                        ooXXXXXXXXXXXX                          ",
"                      ooooXXXXXXXXXXXXoo                        ",
"                      ooooXXXXXXXXXXXXoo                        ",
"                      ooooooXXXXXXXXXXoo                        ",
"                      ooooooXXXXXXXXXXoo                        ",
"                      ooooooXXXXXXXXXXoooo                      ",
"                      ooooooXXXXXXXXXXoooo                      ",
"                      ooooooXXXXXXXXXXXXoo                      ",
"                      ooooooXXXXXXXXXXXXoo                      ",
"                      ooooooXXXXXXXXXXXX                        ",
"                      ooooooXXXXXXXXXXXX                        ",
"                          ......  XXXXXX                        ",
"                          ......  XXXXXX                        ",
"                          ......  XXXXXX                        ",
"                          ......  XXXXXX                        ",
"                          ......  XXXX                          ",
"                          ......  XXXX                          ",
"                          XX..    XXXX                          ",
"                          XX..    XXXX                          ",
"                            ..    XX                            ",
"                            ..    XX                            ",
"                          ....    XX                            ",
"                          ....    XX                            ",
"                                  XXXX                          ",
"                                  XXXX                          ",
"                                                                ",
"                                                                ",
"                                                                "
};
