/* XPM */
static char *_27fa73b582e4cfdac242c5f70e837a0jmcV33nAwSTAVnq8[] = {
/* columns rows colors chars-per-pixel */
"64 64 5 1 ",
"  c None",
". c black",
"X c gray24",
"o c #99E550",
"O c white",
/* pixels */
"                                                                ",
"                                                                ",
"                                                                ",
"                                                                ",
"                                                                ",
"                                                                ",
"                                                                ",
"                            XXXXXXXX                            ",
"                            XXXXXXXX                            ",
"                        XXXXXXXXXXXXXXXX                        ",
"                        XXXXXXXXXXXXXXXX                        ",
"                      XXXXXXXXXXXXXXXXXXXX                      ",
"                      XXXXXXXXXXXXXXXXXXXX                      ",
"                      XXXXXXXXXXXXXXXXXXXX                      ",
"                      XXXXXXXXXXXXXXXXXXXX                      ",
"                      XXXXXXXXXXXXXXXXXXXX                      ",
"                      XXXXXXXXXXXXXXXXXXXX                      ",
"                      XXXXXXXXXXXXXXXXXXXX                      ",
"                      XXXXXXXXXXXXXXXXXXXX                      ",
"                      XXXXXXOOXXXXXXXXXXXX                      ",
"                      XXXXXXOOXXXXXXXXXXXX                      ",
"                        XXXXOOXXXXXXXXXXXX                      ",
"                        XXXXOOXXXXXXXXXXXX                      ",
"                        XXXXXXXXXXXXXXXXXX                      ",
"                        XXXXXXXXXXXXXXXXXX                      ",
"                          XXXXXXXXXXXX                          ",
"                          XXXXXXXXXXXX                          ",
"                                XXXX                            ",
"                                XXXX                            ",
"                              XXXXXX                            ",
"                              XXXXXX                            ",
"                            XXXXXXooXX                          ",
"                            XXXXXXooXX                          ",
"                            XXXXXXoooo                          ",
"                            XXXXXXoooo                          ",
"                          XXXXXXXXXXoo                          ",
"                          XXXXXXXXXXoo                          ",
"                          XXXXXXXXXXoooo                        ",
"                          XXXXXXXXXXoooo                        ",
"                          XXXXXXXXXXoooooo                      ",
"                          XXXXXXXXXXoooooo                      ",
"                          XXXXXXXXoooooooo                      ",
"                          XXXXXXXXoooooooo                      ",
"                            XXXXXXoooooooo                      ",
"                            XXXXXXoooooooo                      ",
"                            ..XXXXXXoooo                        ",
"                            ..XXXXXXoooo                        ",
"                            ....XXXX                            ",
"                            ....XXXX                            ",
"                            ....XXXXXX                          ",
"                            ....XXXXXX                          ",
"                              ....XXXX                          ",
"                              ....XXXX                          ",
"                              ....XXXX                          ",
"                              ....XXXX                          ",
"                              ..  XX                            ",
"                              ..  XX                            ",
"                            ....  XX                            ",
"                            ....  XX                            ",
"                                XXXX                            ",
"                                XXXX                            ",
"                                                                ",
"                                                                ",
"                                                                "
};
