/* XPM */
static char *_ee9c0926c3f44fec685d9f7c380cc58NLglwcOnqVUhDCux[] = {
/* columns rows colors chars-per-pixel */
"64 64 5 1 ",
"  c None",
". c black",
"X c gray24",
"o c #99E550",
"O c white",
/* pixels */
"                                                                ",
"                                                                ",
"                                                                ",
"                                                                ",
"                                                                ",
"                                                                ",
"                                                                ",
"                                                                ",
"                                                                ",
"                            XXXXXXXX                            ",
"                            XXXXXXXX                            ",
"                        XXXXXXXXXXXXXXXX                        ",
"                        XXXXXXXXXXXXXXXX                        ",
"                      XXXXXXXXXXXXXXXXXXXX                      ",
"                      XXXXXXXXXXXXXXXXXXXX                      ",
"                      XXXXXXXXXXXXXXXXXXXX                      ",
"                      XXXXXXXXXXXXXXXXXXXX                      ",
"                      XXXXXXXXXXXXXXXXXXXX                      ",
"                      XXXXXXXXXXXXXXXXXXXX                      ",
"                      XXXXXXXXXXXXXXXXXXXX                      ",
"                      XXXXXXXXXXXXXXXXXXXX                      ",
"                      XXXXXXOOXXXXXXXXXXXX                      ",
"                      XXXXXXOOXXXXXXXXXXXX                      ",
"                        XXXXOOXXXXXXXXXXXX                      ",
"                        XXXXOOXXXXXXXXXXXX                      ",
"                        XXXXXXXXXXXXXXXXXX                      ",
"                        XXXXXXXXXXXXXXXXXX                      ",
"                          XXXXXXXXXXXX                          ",
"                          XXXXXXXXXXXX                          ",
"                                XXXX                            ",
"                                XXXX                            ",
"                              XXXXXX                            ",
"                              XXXXXX                            ",
"                            XXXXooXXXX                          ",
"                            XXXXooXXXX                          ",
"                            XXXXooXXXX                          ",
"                            XXXXooXXXX                          ",
"                          XXXXooooXXXX                          ",
"                          XXXXooooXXXX                          ",
"                          XXooooXXXXXX                          ",
"                          XXooooXXXXXX                          ",
"                        ooooooooXXXXXXoo                        ",
"                        ooooooooXXXXXXoo                        ",
"                      ooooooooXXXXXXXXoo                        ",
"                      ooooooooXXXXXXXXoo                        ",
"                        ooooooXXXXXXXXoo                        ",
"                        ooooooXXXXXXXXoo                        ",
"                        ....XXXXXXXX                            ",
"                        ....XXXXXXXX                            ",
"                        ......XXXXXX                            ",
"                        ......XXXXXX                            ",
"                          ......XXXXXX                          ",
"                          ......XXXXXX                          ",
"                          ....    XXXXXX                        ",
"                          ....    XXXXXX                        ",
"                        ....        XXXX                        ",
"                        ....        XXXX                        ",
"                        ..          XXXX                        ",
"                        ..          XXXX                        ",
"                      ....            XX                        ",
"                      ....            XX                        ",
"                                                                ",
"                                                                ",
"                                                                "
};
