/* XPM */
static char *_b12ee5dea62416eb62753e48f5fc937IZLe16LUiOUk1MX4[] = {
/* columns rows colors chars-per-pixel */
"64 64 5 1 ",
"  c None",
". c black",
"X c gray24",
"o c #99E550",
"O c white",
/* pixels */
"                                                                ",
"                                                                ",
"                                                                ",
"                                                                ",
"                                                                ",
"                                                                ",
"                                                                ",
"                                                                ",
"                                                                ",
"                                                                ",
"                            XXXXXXXX                            ",
"                            XXXXXXXX                            ",
"                        XXXXXXXXXXXXXXXX                        ",
"                        XXXXXXXXXXXXXXXX                        ",
"                      XXXXXXXXXXXXXXXXXXXX                      ",
"                      XXXXXXXXXXXXXXXXXXXX                      ",
"                      XXXXXXXXXXXXXXXXXXXX                      ",
"                      XXXXXXXXXXXXXXXXXXXX                      ",
"                      XXXXXXXXXXXXXXXXXXXX                      ",
"                      XXXXXXXXXXXXXXXXXXXX                      ",
"                      XXXXXXXXXXXXXXXXXXXX                      ",
"                      XXXXXXXXXXXXXXXXXXXX                      ",
"                      XXXXXXXXXXXXOOXXXXXX                      ",
"                      XXXXXXXXXXXXOOXXXXXX                      ",
"                      XXXXXXXXXXXXOOXXXX                        ",
"                      XXXXXXXXXXXXOOXXXX                        ",
"                      XXXXXXXXXXXXXXXXXX                        ",
"                      XXXXXXXXXXXXXXXXXX                        ",
"                          XXXXXXXXXXXX                          ",
"                          XXXXXXXXXXXX                          ",
"                            XXXX                                ",
"                            XXXX                                ",
"                            XXXXXX                              ",
"                            XXXXXX                              ",
"                          XXooXXXXXX                            ",
"                          XXooXXXXXX                            ",
"                          ooooXXXXXX                            ",
"                          ooooXXXXXX                            ",
"                          ooXXXXXXXXXX                          ",
"                          ooXXXXXXXXXX                          ",
"                        ooooXXXXXXXXXX                          ",
"                        ooooXXXXXXXXXX                          ",
"                      ooooooXXXXXXXXXX                          ",
"                      ooooooXXXXXXXXXX                          ",
"                      ooooooooXXXXXXXX                          ",
"                      ooooooooXXXXXXXX                          ",
"                      ooooooooXXXXXX                            ",
"                      ooooooooXXXXXX                            ",
"                        ooooXXXXXX..                            ",
"                        ooooXXXXXX..                            ",
"                            XXXX....                            ",
"                            XXXX....                            ",
"                          XXXXXX....                            ",
"                          XXXXXX....                            ",
"                          XXXX....                              ",
"                          XXXX....                              ",
"                          XXXX....                              ",
"                          XXXX....                              ",
"                            XX  ..                              ",
"                            XX  ..                              ",
"                            XX  ....                            ",
"                            XX  ....                            ",
"                            XXXX                                ",
"                            XXXX                                "
};
