/* XPM */
static char *result[] = {
/* columns rows colors chars-per-pixel */
"64 64 6 1 ",
"  c #334251",
". c #52697F",
"X c #509B66",
"o c #748BA0",
"O c #8AA0B5",
"+ c #A2B9CE",
/* pixels */
"XXXXXXXXXXXXXXXXXXXXXXXXXXXXXXXXXXXXXXXXXXXXXXXXXXXXXXXXXXXXXXXX",
"XXXXXXXXXXXXXXXXXXXXXXXXXXXXXXXXXXXXXXXXXXXXXXXXXXXXXXXXXXXXXXXX",
"XXXXXXXXXXXXXXXXXXXXXXXXXXXXXXXXXXXXXXXXXXXXXXXXXXXXXXXXXXXXXXXX",
"XXXXXXXXXXXXXXXXXXXXXXXXXXXXXXXXXXXXXXXXXXXXXXXXXXXXXXXXXXXXXXXX",
"XXXXXXXXXXXXXXXXXXXXXX                      XXXXXXXXXXXXXXXXXXXX",
"XXXXXXXXXXXXXXXXXXXXXX                      XXXXXXXXXXXXXXXXXXXX",
"XXXXXXXXXXXXXXXX      OOOOOOOOOOOOOOOOOOOOOO    XXXXXXXXXXXXXXXX",
"XXXXXXXXXXXXXXXX      OOOOOOOOOOOOOOOOOOOOOO    XXXXXXXXXXXXXXXX",
"XXXXXXXXXXXXXX  OOOOOOOOOOOOOOOOOOOOOOOOOOOOOOOO      XXXXXXXXXX",
"XXXXXXXXXXXXXX  OOOOOOOOOOOOOOOOOOOOOOOOOOOOOOOO      XXXXXXXXXX",
"XXXXXXXXXXXX  OOOOOOOOOOOOOOOOOOOOOOOOOOOOOOOOOOOO++++  XXXXXXXX",
"XXXXXXXXXXXX  OOOOOOOOOOOOOOOOOOOOOOOOOOOOOOOOOOOO++++  XXXXXXXX",
"XXXXXXXXXX  OOOOOOOOOOOOOOOOOOOOOOOOOOOOOOOOOOOOOO++++++  XXXXXX",
"XXXXXXXXXX  OOOOOOOOOOOOOOOOOOOOOOOOOOOOOOOOOOOOOO++++++  XXXXXX",
"XXXXXXXX  ..OOOOOOOOOOOOOOOOOOOOOOOOOOOOOOOOOOOOOO++++++  XXXXXX",
"XXXXXXXX  ..OOOOOOOOOOOOOOOOOOOOOOOOOOOOOOOOOOOOOO++++++  XXXXXX",
"XXXXXXXX  ..OOOOOOOOOOOOOOOOOOOOOOOOOOOOOOOOOOOOOOOO++++  XXXXXX",
"XXXXXXXX  ..OOOOOOOOOOOOOOOOOOOOOOOOOOOOOOOOOOOOOOOO++++  XXXXXX",
"XXXXXXXX  OOOOOOOOOOOOOOOOOOOOOOOOOOOOOOOOOOOOOOOOOO++oo  XXXXXX",
"XXXXXXXX  OOOOOOOOOOOOOOOOOOOOOOOOOOOOOOOOOOOOOOOOOO++oo  XXXXXX",
"XXXXXXXX  ++OOOOOOOOOOOOOOOOOOOOOOOOOOOOOOOOOOOOOOOO++oooo  XXXX",
"XXXXXXXX  ++OOOOOOOOOOOOOOOOOOOOOOOOOOOOOOOOOOOOOOOO++oooo  XXXX",
"XXXXXXXX  ++OOOOOOOOOOOOOOOOOOOOOOOOOOOOOOOOOOOOOOOO++..oo  XXXX",
"XXXXXXXX  ++OOOOOOOOOOOOOOOOOOOOOOOOOOOOOOOOOOOOOOOO++..oo  XXXX",
"XXXXXXXX  ++++OOOOOOOOOOOOOOOOOOOOOOOOOOOOOOOOOOOOOO++..oo  XXXX",
"XXXXXXXX  ++++OOOOOOOOOOOOOOOOOOOOOOOOOOOOOOOOOOOOOO++..oo  XXXX",
"XXXXXX  oo++++++OOOOOOOOOOOOOOOOOOOOOOOOOOOOOOOOOOOO....oo  XXXX",
"XXXXXX  oo++++++OOOOOOOOOOOOOOOOOOOOOOOOOOOOOOOOOOOO....oo  XXXX",
"XXXXXX  oooooo++++++++OOOOOOOOOOOOOOOOOOOOOOOOOO........oo  XXXX",
"XXXXXX  oooooo++++++++OOOOOOOOOOOOOOOOOOOOOOOOOO........oo  XXXX",
"XXXXXX  ..oooooo++++++++++++++OOOOOOOOOO..............++++  XXXX",
"XXXXXX  ..oooooo++++++++++++++OOOOOOOOOO..............++++  XXXX",
"XXXXXX  ..oooooooooo................................oo++++  XXXX",
"XXXXXX  ..oooooooooo................................oo++++  XXXX",
"XXXXXX  ..oooooooooooooo..........................oooooo..  XXXX",
"XXXXXX  ..oooooooooooooo..........................oooooo..  XXXX",
"XXXXXX  ....++++oooooo..........................oooooo....  XXXX",
"XXXXXX  ....++++oooooo..........................oooooo....  XXXX",
"XXXX  oooooo..............................oooooooooo......oo  XX",
"XXXX  oooooo..............................oooooooooo......oo  XX",
"XXXX  oooooooo..........................................oooo  XX",
"XXXX  oooooooo..........................................oooo  XX",
"XXXX  ..oooooooo......................................++++oo  XX",
"XXXX  ..oooooooo......................................++++oo  XX",
"XXXX  ..oooooooooooo..............................oooo++++..  XX",
"XXXX  ..oooooooooooo..............................oooo++++..  XX",
"XXXX  ....oooooooooooooooooooooooo............oooooooooo....  XX",
"XXXX  ....oooooooooooooooooooooooo............oooooooooo....  XX",
"XXXX  ........oooo++++++oooooooooooooo......................  XX",
"XXXX  ........oooo++++++oooooooooooooo......................  XX",
"XXXXXX  ....................................................  XX",
"XXXXXX  ....................................................  XX",
"XXXXXX  ..................................................  XXXX",
"XXXXXX  ..................................................  XXXX",
"XXXXXXXX  ..............................................  XXXXXX",
"XXXXXXXX  ..............................................  XXXXXX",
"XXXXXXXXXX  ..........................................  XXXXXXXX",
"XXXXXXXXXX  ..........................................  XXXXXXXX",
"XXXXXXXXXXXXXXXXXXXXXXXXXXXXXXXXXXXXXXXXXXXXXXXXXXXXXXXXXXXXXXXX",
"XXXXXXXXXXXXXXXXXXXXXXXXXXXXXXXXXXXXXXXXXXXXXXXXXXXXXXXXXXXXXXXX",
"XXXXXXXXXXXXXXXXXXXXXXXXXXXXXXXXXXXXXXXXXXXXXXXXXXXXXXXXXXXXXXXX",
"XXXXXXXXXXXXXXXXXXXXXXXXXXXXXXXXXXXXXXXXXXXXXXXXXXXXXXXXXXXXXXXX",
"XXXXXXXXXXXXXXXXXXXXXXXXXXXXXXXXXXXXXXXXXXXXXXXXXXXXXXXXXXXXXXXX",
"XXXXXXXXXXXXXXXXXXXXXXXXXXXXXXXXXXXXXXXXXXXXXXXXXXXXXXXXXXXXXXXX"
};
