/* XPM */
static char *_0c9595d5a074a728fb7718941ad6039ugRXVxIFsuEm5lB7[] = {
/* columns rows colors chars-per-pixel */
"64 64 11 1 ",
"  c #163C2B",
". c #755338",
"X c #296640",
"o c #9D7658",
"O c #509B66",
"+ c #00ACFF",
"@ c #00CCFF",
"# c gray54",
"$ c gray59",
"% c #D7F8FF",
"& c #F4FDFF",
/* pixels */
"++++++++++++++++++++@@@@@@@@@@@@@@@@@@@@@@++++  XXOOOOOOOOOOOOOO",
"++++++++++++++++++++@@@@@@@@@@@@@@@@@@@@@@++++  XXOOOOOOOOOOOOOO",
"++++++++++++++++++++@@@@@@@@@@@@@@@@@@@@@@++++++  XX  OOOOOOOOOO",
"++++++++++++++++++++@@@@@@@@@@@@@@@@@@@@@@++++++  XX  OOOOOOOOOO",
"++++++++++++++++++++@@@@@@@@@@@@@@@@@@@@@@@@++++    OOOOOOOOOOOO",
"++++++++++++++++++++@@@@@@@@@@@@@@@@@@@@@@@@++++    OOOOOOOOOOOO",
"++++++++++++++++++++@@@@@@@@@@@@@@@@@@@@@@@@++++  OOOOOOOOOOOOOO",
"++++++++++++++++++++@@@@@@@@@@@@@@@@@@@@@@@@++++  OOOOOOOOOOOOOO",
"++++++++++++++++++++@@@@@@@@@@@@@@@@@@@@@@@@++++  OOOOOOOOOOXXOO",
"++++++++++++++++++++@@@@@@@@@@@@@@@@@@@@@@@@++++  OOOOOOOOOOXXOO",
"++++++++++++++++++++@@@@@@@@@@@@@@@@@@@@@@@@++++  OOOOOOOOXX  OO",
"++++++++++++++++++++@@@@@@@@@@@@@@@@@@@@@@@@++++  OOOOOOOOXX  OO",
"++++++++++++++++++++@@@@@@@@@@@@@@@@@@@@@@@@++++    XXXXXXXX    ",
"++++++++++++++++++++@@@@@@@@@@@@@@@@@@@@@@@@++++    XXXXXXXX    ",
"++++++++++++++++++++@@@@@@@@@@@@@@@@@@@@@@@@++++....        ....",
"++++++++++++++++++++@@@@@@@@@@@@@@@@@@@@@@@@++++....        ....",
"++++++++++++++++++++@@@@@@@@@@@@@@@@@@@@@@++++++..oo........oooo",
"++++++++++++++++++++@@@@@@@@@@@@@@@@@@@@@@++++++..oo........oooo",
"++++++++++++++++++@@@@@@@@@@@@@@@@@@@@@@@@++++++..oooooooooooooo",
"++++++++++++++++++@@@@@@@@@@@@@@@@@@@@@@@@++++++..oooooooooooooo",
"++++++++++++++++++@@@@@@@@@@@@@@@@@@@@@@@@++++&&..oooo##$$..oooo",
"++++++++++++++++++@@@@@@@@@@@@@@@@@@@@@@@@++++&&..oooo##$$..oooo",
"++++++++++++++++++@@@@@@@@@@@@@@@@@@@@@@@@++++&&..oooo....oooooo",
"++++++++++++++++++@@@@@@@@@@@@@@@@@@@@@@@@++++&&..oooo....oooooo",
"++++++++++++++++++@@@@@@@@@@@@@@@@@@@@@@@@++++%%&&oooooooooo&&&&",
"++++++++++++++++++@@@@@@@@@@@@@@@@@@@@@@@@++++%%&&oooooooooo&&&&",
"++++++++++++++++++@@@@@@@@@@@@@@@@@@@@@@@@++++%%&&&&&&&&&&&&%%%%",
"++++++++++++++++++@@@@@@@@@@@@@@@@@@@@@@@@++++%%&&&&&&&&&&&&%%%%",
"++++++++++++++++++@@@@@@@@@@@@@@@@@@@@@@@@++++++%%%%%%%%%%%%++++",
"++++++++++++++++++@@@@@@@@@@@@@@@@@@@@@@@@++++++%%%%%%%%%%%%++++",
"++++++++++++++++++@@@@@@@@@@@@@@@@@@@@@@@@++++++++++++++++++++++",
"++++++++++++++++++@@@@@@@@@@@@@@@@@@@@@@@@++++++++++++++++++++++",
"++++++++++++++++++@@@@@@@@@@@@@@@@@@@@@@@@@@++++++++++++++++@@@@",
"++++++++++++++++++@@@@@@@@@@@@@@@@@@@@@@@@@@++++++++++++++++@@@@",
"++++++++++++++++++@@@@@@@@@@@@@@@@@@@@@@@@@@@@@@@@@@@@@@@@@@@@@@",
"++++++++++++++++++@@@@@@@@@@@@@@@@@@@@@@@@@@@@@@@@@@@@@@@@@@@@@@",
"++++++++++++++++++++@@@@@@@@@@@@@@@@@@@@@@@@@@@@@@@@@@@@@@@@@@@@",
"++++++++++++++++++++@@@@@@@@@@@@@@@@@@@@@@@@@@@@@@@@@@@@@@@@@@@@",
"++++++++++++++++++++@@@@@@@@@@@@@@@@@@@@@@@@@@@@@@@@@@@@@@@@@@@@",
"++++++++++++++++++++@@@@@@@@@@@@@@@@@@@@@@@@@@@@@@@@@@@@@@@@@@@@",
"++++++++++++++++++++@@@@@@@@@@@@@@@@@@@@@@@@@@@@@@@@@@@@@@@@@@@@",
"++++++++++++++++++++@@@@@@@@@@@@@@@@@@@@@@@@@@@@@@@@@@@@@@@@@@@@",
"++++++++++++++++++++@@@@@@@@@@@@@@@@@@@@@@@@@@@@@@@@@@@@@@@@@@@@",
"++++++++++++++++++++@@@@@@@@@@@@@@@@@@@@@@@@@@@@@@@@@@@@@@@@@@@@",
"++++++++++++++++++++@@@@@@@@@@@@@@@@@@@@@@@@@@@@@@@@@@@@@@@@@@@@",
"++++++++++++++++++++@@@@@@@@@@@@@@@@@@@@@@@@@@@@@@@@@@@@@@@@@@@@",
"++++++++++++++++++++++@@@@@@@@@@@@@@@@@@@@@@@@@@@@@@@@@@@@@@@@@@",
"++++++++++++++++++++++@@@@@@@@@@@@@@@@@@@@@@@@@@@@@@@@@@@@@@@@@@",
"++++++++++++++++++++++++++++++++++++@@@@@@@@@@@@@@@@@@@@++++++++",
"++++++++++++++++++++++++++++++++++++@@@@@@@@@@@@@@@@@@@@++++++++",
"++++++++++++++++++++++++++++++++++++++++++++++++++++++++++++++++",
"++++++++++++++++++++++++++++++++++++++++++++++++++++++++++++++++",
"++++++++++++++++++++++++++++++++++++++++++++++++++++++++++++++++",
"++++++++++++++++++++++++++++++++++++++++++++++++++++++++++++++++",
"++++++++++++++++++++++++++++++++++++++++++++++++++++++++++++++++",
"++++++++++++++++++++++++++++++++++++++++++++++++++++++++++++++++",
"++++++++++++++++++++++++++++++++++++++++++++++++++++++++++++++++",
"++++++++++++++++++++++++++++++++++++++++++++++++++++++++++++++++",
"++++++++++++++++++++++++++++++++++++++++++++++++++++++++++++++++",
"++++++++++++++++++++++++++++++++++++++++++++++++++++++++++++++++",
"++++++++++++++++++++++++++++++++++++++++++++++++++++++++++++++++",
"++++++++++++++++++++++++++++++++++++++++++++++++++++++++++++++++",
"++++++++++++++++++++++++++++++++++++++++++++++++++++++++++++++++",
"++++++++++++++++++++++++++++++++++++++++++++++++++++++++++++++++"
};
