/* XPM */
static char *_7122bf1016c4fc7e366d4cff615425ae7s45vlVh8FxvrSD[] = {
/* columns rows colors chars-per-pixel */
"64 64 5 1 ",
"  c #163C2B",
". c #296640",
"X c #509B66",
"o c #00ACFF",
"O c #00CCFF",
/* pixels */
"ooooooooooooooooooOOOOOOOOOOOOOOOOOOOOOOOOoooooo  ....XXXXXXXXXX",
"ooooooooooooooooooOOOOOOOOOOOOOOOOOOOOOOOOoooooo  ....XXXXXXXXXX",
"ooooooooooooooooooOOOOOOOOOOOOOOOOOOOOOOOOoooooooo      XXXXXXXX",
"ooooooooooooooooooOOOOOOOOOOOOOOOOOOOOOOOOoooooooo      XXXXXXXX",
"ooooooooooooooooooooOOOOOOOOOOOOOOOOOOOOOOoooooooooo  XXXXXXXXXX",
"ooooooooooooooooooooOOOOOOOOOOOOOOOOOOOOOOoooooooooo  XXXXXXXXXX",
"ooooooooooooooooooooOOOOOOOOOOOOOOOOOOOOOOoooooooo  XXXXXXXXXXXX",
"ooooooooooooooooooooOOOOOOOOOOOOOOOOOOOOOOoooooooo  XXXXXXXXXXXX",
"ooooooooooooooooooooOOOOOOOOOOOOOOOOOOOOOOoooooo  XXXXXXXXXXXXXX",
"ooooooooooooooooooooOOOOOOOOOOOOOOOOOOOOOOoooooo  XXXXXXXXXXXXXX",
"ooooooooooooooooooooOOOOOOOOOOOOOOOOOOOOOOoooooo  ..XXXXXXXXXXXX",
"ooooooooooooooooooooOOOOOOOOOOOOOOOOOOOOOOoooooo  ..XXXXXXXXXXXX",
"ooooooooooooooooooooOOOOOOOOOOOOOOOOOOOOOOoooooo  ..XXXXXXXXXXXX",
"ooooooooooooooooooooOOOOOOOOOOOOOOOOOOOOOOoooooo  ..XXXXXXXXXXXX",
"ooooooooooooooooooooOOOOOOOOOOOOOOOOOOOOoooooooooo  XXXXXXXXXXXX",
"ooooooooooooooooooooOOOOOOOOOOOOOOOOOOOOoooooooooo  XXXXXXXXXXXX",
"ooooooooooooooooooooOOOOOOOOOOOOOOOOOOOOoooooooo  XX  XXXXXXXXXX",
"ooooooooooooooooooooOOOOOOOOOOOOOOOOOOOOoooooooo  XX  XXXXXXXXXX",
"ooooooooooooooooooooOOOOOOOOOOOOOOOOOOOOoooooo  ..XXXXXXXXXXXXXX",
"ooooooooooooooooooooOOOOOOOOOOOOOOOOOOOOoooooo  ..XXXXXXXXXXXXXX",
"ooooooooooooooooooooOOOOOOOOOOOOOOOOOOOOoooooo  ..XXXXXXXXXXXXXX",
"ooooooooooooooooooooOOOOOOOOOOOOOOOOOOOOoooooo  ..XXXXXXXXXXXXXX",
"ooooooooooooooooooooOOOOOOOOOOOOOOOOOOOOoooooooo  ..XXXXXXXXXXXX",
"ooooooooooooooooooooOOOOOOOOOOOOOOOOOOOOoooooooo  ..XXXXXXXXXXXX",
"ooooooooooooooooooOOOOOOOOOOOOOOOOOOOOOOoooooooo  ..XXXXXXXXXXXX",
"ooooooooooooooooooOOOOOOOOOOOOOOOOOOOOOOoooooooo  ..XXXXXXXXXXXX",
"ooooooooooooooooooOOOOOOOOOOOOOOOOOOOOOOoooooooooo  XXXXXXXXXXXX",
"ooooooooooooooooooOOOOOOOOOOOOOOOOOOOOOOoooooooooo  XXXXXXXXXXXX",
"ooooooooooooooooooOOOOOOOOOOOOOOOOOOOOOOOOoooooo  XXXXXXXXXXXXXX",
"ooooooooooooooooooOOOOOOOOOOOOOOOOOOOOOOOOoooooo  XXXXXXXXXXXXXX",
"ooooooooooooooooooOOOOOOOOOOOOOOOOOOOOOOOOoooooo  XXXXXXXXXXXXXX",
"ooooooooooooooooooOOOOOOOOOOOOOOOOOOOOOOOOoooooo  XXXXXXXXXXXXXX",
"ooooooooooooooooooOOOOOOOOOOOOOOOOOOOOOOOOoooooo  ..XXXXXXXXXXXX",
"ooooooooooooooooooOOOOOOOOOOOOOOOOOOOOOOOOoooooo  ..XXXXXXXXXXXX",
"ooooooooooooooooooOOOOOOOOOOOOOOOOOOOOOOoooooooooo    XXXXXXXXXX",
"ooooooooooooooooooOOOOOOOOOOOOOOOOOOOOOOoooooooooo    XXXXXXXXXX",
"ooooooooooooooooooOOOOOOOOOOOOOOOOOOOOOOoooooooo    XXXXXXXXXXXX",
"ooooooooooooooooooOOOOOOOOOOOOOOOOOOOOOOoooooooo    XXXXXXXXXXXX",
"ooooooooooooooooooooOOOOOOOOOOOOOOOOOOOOoooooooo  XXXXXXXXXXXXXX",
"ooooooooooooooooooooOOOOOOOOOOOOOOOOOOOOoooooooo  XXXXXXXXXXXXXX",
"ooooooooooooooooooooOOOOOOOOOOOOOOOOOOOOoooooooo  ..XXXXXXXXXXXX",
"ooooooooooooooooooooOOOOOOOOOOOOOOOOOOOOoooooooo  ..XXXXXXXXXXXX",
"ooooooooooooooooooooOOOOOOOOOOOOOOOOOOOOOOoooooo  ..XXXXXXXXXXXX",
"ooooooooooooooooooooOOOOOOOOOOOOOOOOOOOOOOoooooo  ..XXXXXXXXXXXX",
"ooooooooooooooooooooOOOOOOOOOOOOOOOOOOOOOOoooooooo  XXXXXXXXXXXX",
"ooooooooooooooooooooOOOOOOOOOOOOOOOOOOOOOOoooooooo  XXXXXXXXXXXX",
"ooooooooooooooooooooOOOOOOOOOOOOOOOOOOOOOOoooooo  XXXXXXXXXXXXXX",
"ooooooooooooooooooooOOOOOOOOOOOOOOOOOOOOOOoooooo  XXXXXXXXXXXXXX",
"ooooooooooooooooooooOOOOOOOOOOOOOOOOOOOOOOoooo  XXXXXXXXXXXXXXXX",
"ooooooooooooooooooooOOOOOOOOOOOOOOOOOOOOOOoooo  XXXXXXXXXXXXXXXX",
"ooooooooooooooooooooOOOOOOOOOOOOOOOOOOOOoooooo  ..XXXXXXXXXXXXXX",
"ooooooooooooooooooooOOOOOOOOOOOOOOOOOOOOoooooo  ..XXXXXXXXXXXXXX",
"ooooooooooooooooooOOOOOOOOOOOOOOOOOOOOOOoooooo  ....XXXXXXXXXXXX",
"ooooooooooooooooooOOOOOOOOOOOOOOOOOOOOOOoooooo  ....XXXXXXXXXXXX",
"ooooooooooooooooooOOOOOOOOOOOOOOOOOOOOOOoooooooo    XXXXXXXXXXXX",
"ooooooooooooooooooOOOOOOOOOOOOOOOOOOOOOOoooooooo    XXXXXXXXXXXX",
"ooooooooooooooooooOOOOOOOOOOOOOOOOOOOOOOoooooo    XXXXXXXXXXXXXX",
"ooooooooooooooooooOOOOOOOOOOOOOOOOOOOOOOoooooo    XXXXXXXXXXXXXX",
"ooooooooooooooooooOOOOOOOOOOOOOOOOOOOOOOoooooo  XXXXXXXXXXXXXXXX",
"ooooooooooooooooooOOOOOOOOOOOOOOOOOOOOOOoooooo  XXXXXXXXXXXXXXXX",
"ooooooooooooooooooOOOOOOOOOOOOOOOOOOOOOOOOoooo  ..XXXXXXXXXXXXXX",
"ooooooooooooooooooOOOOOOOOOOOOOOOOOOOOOOOOoooo  ..XXXXXXXXXXXXXX",
"ooooooooooooooooooOOOOOOOOOOOOOOOOOOOOOOOOoooo  ..XXXXXXXXXXXXXX",
"ooooooooooooooooooOOOOOOOOOOOOOOOOOOOOOOOOoooo  ..XXXXXXXXXXXXXX"
};
