/* XPM */
static char *_2ddea48f8784b4b8a776cc7fa30d9837Ps878byHL6Gb7Z3[] = {
/* columns rows colors chars-per-pixel */
"64 64 5 1 ",
"  c #163C2B",
". c #296640",
"X c #509B66",
"o c #00ACFF",
"O c #00CCFF",
/* pixels */
"XXXXXXXXXX..  ooooOOOOOOOOOOOOOOOOOOOOOOOOoooooooooooooooooooooo",
"XXXXXXXXXX..  ooooOOOOOOOOOOOOOOOOOOOOOOOOoooooooooooooooooooooo",
"XXXXXXXX    ooooooOOOOOOOOOOOOOOOOOOOOOOOOoooooooooooooooooooooo",
"XXXXXXXX    ooooooOOOOOOOOOOOOOOOOOOOOOOOOoooooooooooooooooooooo",
"XXXXXXXXXX    ooooOOOOOOOOOOOOOOOOOOOOOOoooooooooooooooooooooooo",
"XXXXXXXXXX    ooooOOOOOOOOOOOOOOOOOOOOOOoooooooooooooooooooooooo",
"XXXXXXXXXXXX  ooooOOOOOOOOOOOOOOOOOOOOOOoooooooooooooooooooooooo",
"XXXXXXXXXXXX  ooooOOOOOOOOOOOOOOOOOOOOOOoooooooooooooooooooooooo",
"XXXXXXXXXX..  ooooOOOOOOOOOOOOOOOOOOOOOOoooooooooooooooooooooooo",
"XXXXXXXXXX..  ooooOOOOOOOOOOOOOOOOOOOOOOoooooooooooooooooooooooo",
"XXXXXXXXXX  ooooooOOOOOOOOOOOOOOOOOOOOOOoooooooooooooooooooooooo",
"XXXXXXXXXX  ooooooOOOOOOOOOOOOOOOOOOOOOOoooooooooooooooooooooooo",
"XXXXXXXXXXXX  ooooOOOOOOOOOOOOOOOOOOOOOOoooooooooooooooooooooooo",
"XXXXXXXXXXXX  ooooOOOOOOOOOOOOOOOOOOOOOOoooooooooooooooooooooooo",
"XXXXXXXXXX..  ooooooOOOOOOOOOOOOOOOOOOOOoooooooooooooooooooooooo",
"XXXXXXXXXX..  ooooooOOOOOOOOOOOOOOOOOOOOoooooooooooooooooooooooo",
"XXXXXXXXXX  ooooooooOOOOOOOOOOOOOOOOOOOOoooooooooooooooooooooooo",
"XXXXXXXXXX  ooooooooOOOOOOOOOOOOOOOOOOOOoooooooooooooooooooooooo",
"XXXXXXXXXXXX  ooooooOOOOOOOOOOOOOOOOOOOOoooooooooooooooooooooooo",
"XXXXXXXXXXXX  ooooooOOOOOOOOOOOOOOOOOOOOoooooooooooooooooooooooo",
"XXXXXXXXXXXX..  ooooOOOOOOOOOOOOOOOOOOOOoooooooooooooooooooooooo",
"XXXXXXXXXXXX..  ooooOOOOOOOOOOOOOOOOOOOOoooooooooooooooooooooooo",
"XXXXXXXXXXXX..  ooooOOOOOOOOOOOOOOOOOOOOoooooooooooooooooooooooo",
"XXXXXXXXXXXX..  ooooOOOOOOOOOOOOOOOOOOOOoooooooooooooooooooooooo",
"XXXXXXXXXXXX..  ooooOOOOOOOOOOOOOOOOOOOOOOoooooooooooooooooooooo",
"XXXXXXXXXXXX..  ooooOOOOOOOOOOOOOOOOOOOOOOoooooooooooooooooooooo",
"XXXXXXXXXX..  ooooooOOOOOOOOOOOOOOOOOOOOOOoooooooooooooooooooooo",
"XXXXXXXXXX..  ooooooOOOOOOOOOOOOOOOOOOOOOOoooooooooooooooooooooo",
"XXXXXXXXXX..  ooooOOOOOOOOOOOOOOOOOOOOOOOOoooooooooooooooooooooo",
"XXXXXXXXXX..  ooooOOOOOOOOOOOOOOOOOOOOOOOOoooooooooooooooooooooo",
"XXXXXXXXXX  ooooooOOOOOOOOOOOOOOOOOOOOOOOOoooooooooooooooooooooo",
"XXXXXXXXXX  ooooooOOOOOOOOOOOOOOOOOOOOOOOOoooooooooooooooooooooo",
"XXXXXXXXXXXX  ooooOOOOOOOOOOOOOOOOOOOOOOOOoooooooooooooooooooooo",
"XXXXXXXXXXXX  ooooOOOOOOOOOOOOOOOOOOOOOOOOoooooooooooooooooooooo",
"XXXXXXXXXXXX..  ooooOOOOOOOOOOOOOOOOOOOOOOoooooooooooooooooooooo",
"XXXXXXXXXXXX..  ooooOOOOOOOOOOOOOOOOOOOOOOoooooooooooooooooooooo",
"XXXXXXXXXXXX..  ooooOOOOOOOOOOOOOOOOOOOOOOoooooooooooooooooooooo",
"XXXXXXXXXXXX..  ooooOOOOOOOOOOOOOOOOOOOOOOoooooooooooooooooooooo",
"XXXXXXXX  ....  ooooOOOOOOOOOOOOOOOOOOOOoooooooooooooooooooooooo",
"XXXXXXXX  ....  ooooOOOOOOOOOOOOOOOOOOOOoooooooooooooooooooooooo",
"XXXXXXXXXX    ooooooOOOOOOOOOOOOOOOOOOOOoooooooooooooooooooooooo",
"XXXXXXXXXX    ooooooOOOOOOOOOOOOOOOOOOOOoooooooooooooooooooooooo",
"XXXXXXXXXXXX  ooooOOOOOOOOOOOOOOOOOOOOOOoooooooooooooooooooooooo",
"XXXXXXXXXXXX  ooooOOOOOOOOOOOOOOOOOOOOOOoooooooooooooooooooooooo",
"XXXXXXXXXX..  ooooOOOOOOOOOOOOOOOOOOOOOOoooooooooooooooooooooooo",
"XXXXXXXXXX..  ooooOOOOOOOOOOOOOOOOOOOOOOoooooooooooooooooooooooo",
"XXXXXXXXXX  ooooooOOOOOOOOOOOOOOOOOOOOOOoooooooooooooooooooooooo",
"XXXXXXXXXX  ooooooOOOOOOOOOOOOOOOOOOOOOOoooooooooooooooooooooooo",
"XXXXXXXXXX..  ooooOOOOOOOOOOOOOOOOOOOOOOoooooooooooooooooooooooo",
"XXXXXXXXXX..  ooooOOOOOOOOOOOOOOOOOOOOOOoooooooooooooooooooooooo",
"XXXXXXXXXX..  ooooooOOOOOOOOOOOOOOOOOOOOoooooooooooooooooooooooo",
"XXXXXXXXXX..  ooooooOOOOOOOOOOOOOOOOOOOOoooooooooooooooooooooooo",
"XXXXXXXX....  ooooooOOOOOOOOOOOOOOOOOOOOOOoooooooooooooooooooooo",
"XXXXXXXX....  ooooooOOOOOOOOOOOOOOOOOOOOOOoooooooooooooooooooooo",
"XXXXXXXX    ooooooooOOOOOOOOOOOOOOOOOOOOOOoooooooooooooooooooooo",
"XXXXXXXX    ooooooooOOOOOOOOOOOOOOOOOOOOOOoooooooooooooooooooooo",
"XXXXXXXXXX    ooooooOOOOOOOOOOOOOOOOOOOOOOoooooooooooooooooooooo",
"XXXXXXXXXX    ooooooOOOOOOOOOOOOOOOOOOOOOOoooooooooooooooooooooo",
"XXXXXXXXXX..  ooooooOOOOOOOOOOOOOOOOOOOOOOoooooooooooooooooooooo",
"XXXXXXXXXX..  ooooooOOOOOOOOOOOOOOOOOOOOOOoooooooooooooooooooooo",
"XXXXXXXXXX..  ooooOOOOOOOOOOOOOOOOOOOOOOOOoooooooooooooooooooooo",
"XXXXXXXXXX..  ooooOOOOOOOOOOOOOOOOOOOOOOOOoooooooooooooooooooooo",
"XXXXXXXXXX..  ooooOOOOOOOOOOOOOOOOOOOOOOOOoooooooooooooooooooooo",
"XXXXXXXXXX..  ooooOOOOOOOOOOOOOOOOOOOOOOOOoooooooooooooooooooooo"
};
