/* XPM */
static char *_9bdb1b782d745c3b34f2b131735f590N2NO4dIWmXdwBEsS[] = {
/* columns rows colors chars-per-pixel */
"64 64 5 1 ",
"  c #163C2B",
". c #296640",
"X c #509B66",
"o c #00ACFF",
"O c #00CCFF",
/* pixels */
"oooooooooooooooooooooooooooooooooooooooooooooooooooooooooooooooo",
"oooooooooooooooooooooooooooooooooooooooooooooooooooooooooooooooo",
"oooooooooooooooooooooooooooooooooooooooooooooooooooooooooooooooo",
"oooooooooooooooooooooooooooooooooooooooooooooooooooooooooooooooo",
"oooooooooooooooooooooooooooooooooooooooooooooooooooooooooooooooo",
"oooooooooooooooooooooooooooooooooooooooooooooooooooooooooooooooo",
"oooooooooooooooooooooooooooooooooooooooooooooooooooooooooooooooo",
"oooooooooooooooooooooooooooooooooooooooooooooooooooooooooooooooo",
"oooooooooooooooooooooooooooooooooooooooooooooooooooooooooooooooo",
"oooooooooooooooooooooooooooooooooooooooooooooooooooooooooooooooo",
"oooooooooooooooooooooooooooooooooooooooooooooooooooooooooooooooo",
"oooooooooooooooooooooooooooooooooooooooooooooooooooooooooooooooo",
"oooooooooooooooooooooooooooooooooooooooooooooooooooooooooooooooo",
"oooooooooooooooooooooooooooooooooooooooooooooooooooooooooooooooo",
"oooooooooooooooooooooooooooooooooooooooooooooooooooooooooooooooo",
"oooooooooooooooooooooooooooooooooooooooooooooooooooooooooooooooo",
"oooooooooooooooooooooooooooooooooooooooooooooooooooooooooooooooo",
"oooooooooooooooooooooooooooooooooooooooooooooooooooooooooooooooo",
"oooooooooooooooooooooooooooooooooooooooooooooooooooooooooooooooo",
"oooooooooooooooooooooooooooooooooooooooooooooooooooooooooooooooo",
"oooooooooooooooooooooooooooooooooooooooooooooooooooooooooooooooo",
"oooooooooooooooooooooooooooooooooooooooooooooooooooooooooooooooo",
"oooooooooooooooooooooooooooooooooooooooooooooooooooooooooooooooo",
"oooooooooooooooooooooooooooooooooooooooooooooooooooooooooooooooo",
"oooooooooooooooooooooooooooooooooooooooooooooooooooooooooooooooo",
"oooooooooooooooooooooooooooooooooooooooooooooooooooooooooooooooo",
"oooooooooooooooooooooooooooooooooooooooooooooooooooooooooooooooo",
"oooooooooooooooooooooooooooooooooooooooooooooooooooooooooooooooo",
"OOOOOOOOOOOOOOOOOOOOOOOOOOoooooooooooooooooooooooooooooooooooooo",
"OOOOOOOOOOOOOOOOOOOOOOOOOOoooooooooooooooooooooooooooooooooooooo",
"OOOOOOOOOOOOOOOOOOOOOOOOOOOOOOOOOOOOoooooooooooooooooooooooooooo",
"OOOOOOOOOOOOOOOOOOOOOOOOOOOOOOOOOOOOoooooooooooooooooooooooooooo",
"OOOOOOOOOOOOOOOOOOOOOOOOOOOOOOOOOOOOOOOOoooooooooooooooooooooooo",
"OOOOOOOOOOOOOOOOOOOOOOOOOOOOOOOOOOOOOOOOoooooooooooooooooooooooo",
"OOOOOOOOOOOOOOOOOOOOOOOOOOOOOOOOOOOOOOOOOOoooooooooooooooooooooo",
"OOOOOOOOOOOOOOOOOOOOOOOOOOOOOOOOOOOOOOOOOOoooooooooooooooooooooo",
"OOOOOOOOOOOOOOOOOOOOOOOOOOOOOOOOOOOOOOOOOOoooooooooooooooooooooo",
"OOOOOOOOOOOOOOOOOOOOOOOOOOOOOOOOOOOOOOOOOOoooooooooooooooooooooo",
"OOOOOOOOOOOOOOOOOOOOOOOOOOOOOOOOOOOOOOOOOOoooooooooooooooooooooo",
"OOOOOOOOOOOOOOOOOOOOOOOOOOOOOOOOOOOOOOOOOOoooooooooooooooooooooo",
"OOOOOOOOOOOOOOOOOOOOOOOOOOOOOOOOOOOOOOOOOOoooooooooooooooooooooo",
"OOOOOOOOOOOOOOOOOOOOOOOOOOOOOOOOOOOOOOOOOOoooooooooooooooooooooo",
"OOOOOOOOOOOOOOOOOOOOOOOOOOOOOOOOOOOOOOOOOOoooooooooooooooooooooo",
"OOOOOOOOOOOOOOOOOOOOOOOOOOOOOOOOOOOOOOOOOOoooooooooooooooooooooo",
"OOOOOOOOOOOOOOOOOOOOOOOOOOOOOOOOOOOOOOOOOOOOoooooooooooooooooooo",
"OOOOOOOOOOOOOOOOOOOOOOOOOOOOOOOOOOOOOOOOOOOOoooooooooooooooooooo",
"OOOOOOooooooooOOOOOOOOOOOOOOOOOOOOOOOOOOOOOOoooooooooooooooooooo",
"OOOOOOooooooooOOOOOOOOOOOOOOOOOOOOOOOOOOOOOOoooooooooooooooooooo",
"ooooooooooooooooooOOOOOOOOOOOOOOOOOOOOOOOOOOoooooooooooooooooooo",
"ooooooooooooooooooOOOOOOOOOOOOOOOOOOOOOOOOOOoooooooooooooooooooo",
"ooooooooooooooooooooOOOOOOOOOOOOOOOOOOOOOOOOoooooooooooooooooooo",
"ooooooooooooooooooooOOOOOOOOOOOOOOOOOOOOOOOOoooooooooooooooooooo",
"ooooooooooooooooooooOOOOOOOOOOOOOOOOOOOOOOOOoooooooooooooooooooo",
"ooooooooooooooooooooOOOOOOOOOOOOOOOOOOOOOOOOoooooooooooooooooooo",
"oooooo    ooooooooooOOOOOOOOOOOOOOOOOOOOOOOOoooooooooooooooooooo",
"oooooo    ooooooooooOOOOOOOOOOOOOOOOOOOOOOOOoooooooooooooooooooo",
"  oo  ....  ooooooooOOOOOOOOOOOOOOOOOOOOOOOOoooooooooooooooooooo",
"  oo  ....  ooooooooOOOOOOOOOOOOOOOOOOOOOOOOoooooooooooooooooooo",
"XX  XXXXXX..  ooooooOOOOOOOOOOOOOOOOOOOOOOOOoooooooooooooooooooo",
"XX  XXXXXX..  ooooooOOOOOOOOOOOOOOOOOOOOOOOOoooooooooooooooooooo",
"XXXXXXXXXX..  ooooOOOOOOOOOOOOOOOOOOOOOOOOOOoooooooooooooooooooo",
"XXXXXXXXXX..  ooooOOOOOOOOOOOOOOOOOOOOOOOOOOoooooooooooooooooooo",
"XXXXXXXXXX..  ooooOOOOOOOOOOOOOOOOOOOOOOOOOOoooooooooooooooooooo",
"XXXXXXXXXX..  ooooOOOOOOOOOOOOOOOOOOOOOOOOOOoooooooooooooooooooo"
};
