/* XPM */
static char *_27f1927711249699818bb47f702e58ci63cDyCnhtxfLlAm[] = {
/* columns rows colors chars-per-pixel */
"64 64 4 1 ",
"  c None",
". c black",
"X c gray24",
"o c #99E550",
/* pixels */
"                                                                ",
"                                                                ",
"                                                                ",
"                                                                ",
"                                                                ",
"                                                                ",
"                                                                ",
"                                                                ",
"                                                                ",
"                            XXXXXXXX                            ",
"                            XXXXXXXX                            ",
"                        XXXXXXXXXXXXXXXX                        ",
"                        XXXXXXXXXXXXXXXX                        ",
"                      XXXXXXXXXXXXXXXXXXXX                      ",
"                      XXXXXXXXXXXXXXXXXXXX                      ",
"                      XXXXXXXXXXXXXXXXXXXX                      ",
"                      XXXXXXXXXXXXXXXXXXXX                      ",
"                      XXXXXXXXXXXXXXXXXXXX                      ",
"                      XXXXXXXXXXXXXXXXXXXX                      ",
"                      XXXXXXXXXXXXXXXXXXXX                      ",
"                      XXXXXXXXXXXXXXXXXXXX                      ",
"                      XXXXXXXXXXXXXXXXXXXX                      ",
"                      XXXXXXXXXXXXXXXXXXXX                      ",
"                    XXXXXXXXXXXXXXXXXXXXXXXX                    ",
"                    XXXXXXXXXXXXXXXXXXXXXXXX                    ",
"                      XXXXXXXXXXXXXXXXXXXX                      ",
"                      XXXXXXXXXXXXXXXXXXXX                      ",
"                          XXXXXXXXXXXX                          ",
"                          XXXXXXXXXXXX                          ",
"                              XXXX                              ",
"                              XXXX                              ",
"                          ooXXXXXXXX                            ",
"                          ooXXXXXXXX                            ",
"                        ooXXXXXXXXXXXX                          ",
"                        ooXXXXXXXXXXXX                          ",
"                        ooXXXXXXXXXXXX                          ",
"                        ooXXXXXXXXXXXX                          ",
"                      ooooXXXXXXXXXXXXoo                        ",
"                      ooooXXXXXXXXXXXXoo                        ",
"                      ooooooXXXXXXXXXXoo                        ",
"                      ooooooXXXXXXXXXXoo                        ",
"                      ooooooXXXXXXXXXXoooo                      ",
"                      ooooooXXXXXXXXXXoooo                      ",
"                      ooooooXXXXXXXXXXXXoo                      ",
"                      ooooooXXXXXXXXXXXXoo                      ",
"                      ooooooXXXXXXXXXXXX                        ",
"                      ooooooXXXXXXXXXXXX                        ",
"                          ......  XXXXXX                        ",
"                          ......  XXXXXX                        ",
"                          ......  XXXXXX                        ",
"                          ......  XXXXXX                        ",
"                          ......  XXXX                          ",
"                          ......  XXXX                          ",
"                          XX..    XXXX                          ",
"                          XX..    XXXX                          ",
"                            ..    XX                            ",
"                            ..    XX                            ",
"                          ....    XX                            ",
"                          ....    XX                            ",
"                                  XXXX                          ",
"                                  XXXX                          ",
"                                                                ",
"                                                                ",
"                                                                "
};
