/* XPM */
static char *_1404e27d61d449b824957f4a268941aKvMG6A6bPLw3wEFu[] = {
/* columns rows colors chars-per-pixel */
"64 64 5 1 ",
"  c None",
". c black",
"X c gray24",
"o c #99E550",
"O c white",
/* pixels */
"                                                                ",
"                                                                ",
"                                                                ",
"                                                                ",
"                                                                ",
"                                                                ",
"                                                                ",
"                                                                ",
"                                                                ",
"                            XXXXXXXX                            ",
"                            XXXXXXXX                            ",
"                        XXXXXXXXXXXXXXXX                        ",
"                        XXXXXXXXXXXXXXXX                        ",
"                      XXXXXXXXXXXXXXXXXXXX                      ",
"                      XXXXXXXXXXXXXXXXXXXX                      ",
"                      XXXXXXXXXXXXXXXXXXXX                      ",
"                      XXXXXXXXXXXXXXXXXXXX                      ",
"                      XXXXXXXXXXXXXXXXXXXX                      ",
"                      XXXXXXXXXXXXXXXXXXXX                      ",
"                      XXXXXXXXXXXXXXXXXXXX                      ",
"                      XXXXXXXXXXXXXXXXXXXX                      ",
"                      XXXXXXOOXXXXXXXXXXXX                      ",
"                      XXXXXXOOXXXXXXXXXXXX                      ",
"                        XXXXOOXXXXXXXXXXXX                      ",
"                        XXXXOOXXXXXXXXXXXX                      ",
"                        XXXXXXXXXXXXXXXXXX                      ",
"                        XXXXXXXXXXXXXXXXXX                      ",
"                          XXXXXXXXXXXX                          ",
"                          XXXXXXXXXXXX                          ",
"                                XXXX                            ",
"                                XXXX                            ",
"                              XXXXXX                            ",
"                              XXXXXX                            ",
"                            XXXXXXooXX                          ",
"                            XXXXXXooXX                          ",
"                            XXXXXXoooo                          ",
"                            XXXXXXoooo                          ",
"                          XXXXXXXXXXoooo                        ",
"                          XXXXXXXXXXoooo                        ",
"                          XXXXXXXXXXoooo                        ",
"                          XXXXXXXXXXoooo                        ",
"                        ooXXXXXXXXXXoooooo                      ",
"                        ooXXXXXXXXXXoooooo                      ",
"                        ooXXXXXXXXoooooooo                      ",
"                        ooXXXXXXXXoooooooo                      ",
"                        XXXXXXXXXXXXoooooo                      ",
"                        XXXXXXXXXXXXoooooo                      ",
"                        XXXXXXXXXX..                            ",
"                        XXXXXXXXXX..                            ",
"                        XXXXXXXXXX..                            ",
"                        XXXXXXXXXX..                            ",
"                          XXXXXX......                          ",
"                          XXXXXX......                          ",
"                          XXXX    ....                          ",
"                          XXXX    ....                          ",
"                          XX        ....                        ",
"                          XX        ....                        ",
"                          XX          ....                      ",
"                          XX          ....                      ",
"                        XXXX            ..                      ",
"                        XXXX            ..                      ",
"                                                                ",
"                                                                ",
"                                                                "
};
