/* XPM */
static char *_f128151517943fb94c80a4d7866c04bVXGpgymcCHKOyGwM[] = {
/* columns rows colors chars-per-pixel */
"64 64 5 1 ",
"  c None",
". c black",
"X c gray24",
"o c #99E550",
"O c white",
/* pixels */
"                                                                ",
"                                                                ",
"                                                                ",
"                                                                ",
"                                                                ",
"                                                                ",
"                                                                ",
"                                                                ",
"                                                                ",
"                            XXXXXXXX                            ",
"                            XXXXXXXX                            ",
"                        XXXXXXXXXXXXXXXX                        ",
"                        XXXXXXXXXXXXXXXX                        ",
"                      XXXXXXXXXXXXXXXXXXXX                      ",
"                      XXXXXXXXXXXXXXXXXXXX                      ",
"                      XXXXXXXXXXXXXXXXXXXX                      ",
"                      XXXXXXXXXXXXXXXXXXXX                      ",
"                      XXXXXXXXXXXXXXXXXXXX                      ",
"                      XXXXXXXXXXXXXXXXXXXX                      ",
"                      XXXXXXXXXXXXXXXXXXXX                      ",
"                      XXXXXXXXXXXXXXXXXXXX                      ",
"                      XXXXXXXXXXXXOOXXXXXX                      ",
"                      XXXXXXXXXXXXOOXXXXXX                      ",
"                      XXXXXXXXXXXXOOXXXX                        ",
"                      XXXXXXXXXXXXOOXXXX                        ",
"                      XXXXXXXXXXXXXXXXXX                        ",
"                      XXXXXXXXXXXXXXXXXX                        ",
"                          XXXXXXXXXXXX                          ",
"                          XXXXXXXXXXXX                          ",
"                            XXXX                                ",
"                            XXXX                                ",
"                            XXXXXX                              ",
"                            XXXXXX                              ",
"                          XXXXooXXXX                            ",
"                          XXXXooXXXX                            ",
"                          XXXXooXXXX                            ",
"                          XXXXooXXXX                            ",
"                          XXXXooooXXXX                          ",
"                          XXXXooooXXXX                          ",
"                          XXXXXXooooXX                          ",
"                          XXXXXXooooXX                          ",
"                        ooXXXXXXoooooooo                        ",
"                        ooXXXXXXoooooooo                        ",
"                        ooXXXXXXXXoooooooo                      ",
"                        ooXXXXXXXXoooooooo                      ",
"                        ooXXXXXXXXoooooo                        ",
"                        ooXXXXXXXXoooooo                        ",
"                            XXXXXXXX....                        ",
"                            XXXXXXXX....                        ",
"                            XXXXXX......                        ",
"                            XXXXXX......                        ",
"                          XXXXXX......                          ",
"                          XXXXXX......                          ",
"                        XXXXXX    ....                          ",
"                        XXXXXX    ....                          ",
"                        XXXX        ....                        ",
"                        XXXX        ....                        ",
"                        XXXX          ..                        ",
"                        XXXX          ..                        ",
"                        XX            ....                      ",
"                        XX            ....                      ",
"                                                                ",
"                                                                ",
"                                                                "
};
