/* XPM */
static char *_d058a8a971f4b3cec651847b922a70fnDdqVCBSS81mx2Fb[] = {
/* columns rows colors chars-per-pixel */
"64 64 7 1 ",
"  c #334251",
". c #296640",
"X c #52697F",
"o c #509B66",
"O c #748BA0",
"+ c #8AA0B5",
"@ c #A2B9CE",
/* pixels */
"oooooooooooooooooooooooooooooooooooooooooooooooooooooooooooooooo",
"oooooooooooooooooooooooooooooooooooooooooooooooooooooooooooooooo",
"oooooooooooooooooooooooooooooooooooooooooooooooooooooooooooooooo",
"oooooooooooooooooooooooooooooooooooooooooooooooooooooooooooooooo",
"oooooooooooooooooooooo                      oooooooooooooooooooo",
"oooooooooooooooooooooo                      oooooooooooooooooooo",
"oooooooooooooooo      ++++++++++++++++++++++    oooooooooooooooo",
"oooooooooooooooo      ++++++++++++++++++++++    oooooooooooooooo",
"oooooooooooooo  ++++++++++++++++++++++++++++++++      oooooooooo",
"oooooooooooooo  ++++++++++++++++++++++++++++++++      oooooooooo",
"oooooooooooo  ++++++++++++++++++++++++++++++++++++@@@@  oooooooo",
"oooooooooooo  ++++++++++++++++++++++++++++++++++++@@@@  oooooooo",
"oooooooooo  ++++++++++++++++++++++++++++++++++++++@@@@@@  oooooo",
"oooooooooo  ++++++++++++++++++++++++++++++++++++++@@@@@@  oooooo",
"oooooooo  XX++++++++++++++++++++++++++++++++++++++@@@@@@  oooooo",
"oooooooo  XX++++++++++++++++++++++++++++++++++++++@@@@@@  oooooo",
"oooooooo  XX++++++++++++++++++++++++++++++++++++++++@@@@  oooooo",
"oooooooo  XX++++++++++++++++++++++++++++++++++++++++@@@@  oooooo",
"oooooooo  ++++++++++++++++++++++++++++++++++++++++++@@OO  oooooo",
"oooooooo  ++++++++++++++++++++++++++++++++++++++++++@@OO  oooooo",
"oooooooo  @@++++++++++++++++++++++++++++++++++++++++@@OOOO  oooo",
"oooooooo  @@++++++++++++++++++++++++++++++++++++++++@@OOOO  oooo",
"oooooooo  @@++++++++++++++++++++++++++++++++++++++++@@XXOO  oooo",
"oooooooo  @@++++++++++++++++++++++++++++++++++++++++@@XXOO  oooo",
"oooooooo  @@@@++++++++++++++++++++++++++++++++++++++@@XXOO  oooo",
"oooooooo  @@@@++++++++++++++++++++++++++++++++++++++@@XXOO  oooo",
"oooooo  OO@@@@@@++++++++++++++++++++++++++++++++++++XXXXOO  oooo",
"oooooo  OO@@@@@@++++++++++++++++++++++++++++++++++++XXXXOO  oooo",
"oooooo  OOOOOO@@@@@@@@++++++++++++++++++++++++++XXXXXXXXOO  oooo",
"oooooo  OOOOOO@@@@@@@@++++++++++++++++++++++++++XXXXXXXXOO  oooo",
"oooooo  XXOOOOOO@@@@@@@@@@@@@@++++++++++XXXXXXXXXXXXXX@@@@  oooo",
"oooooo  XXOOOOOO@@@@@@@@@@@@@@++++++++++XXXXXXXXXXXXXX@@@@  oooo",
"oooooo  XXOOOOOOOOOOXXXXXXXXXXXXXXXXXXXXXXXXXXXXXXXXOO@@@@  oooo",
"oooooo  XXOOOOOOOOOOXXXXXXXXXXXXXXXXXXXXXXXXXXXXXXXXOO@@@@  oooo",
"oooooo  XXOOOOOOOOOOOOOOXXXXXXXXXXXXXXXXXXXXXXXXXXOOOOOOXX  oooo",
"oooooo  XXOOOOOOOOOOOOOOXXXXXXXXXXXXXXXXXXXXXXXXXXOOOOOOXX  oooo",
"oooooo  XXXX@@@@OOOOOOXXXXXXXXXXXXXXXXXXXXXXXXXXOOOOOOXXXX  oooo",
"oooooo  XXXX@@@@OOOOOOXXXXXXXXXXXXXXXXXXXXXXXXXXOOOOOOXXXX  oooo",
"oooo  OOOOOOXXXXXXXXXXXXXXXXXXXXXXXXXXXXXXOOOOOOOOOOXXXXXXOO  oo",
"oooo  OOOOOOXXXXXXXXXXXXXXXXXXXXXXXXXXXXXXOOOOOOOOOOXXXXXXOO  oo",
"oooo  OOOOOOOOXXXXXXXXXXXXXXXXXXXXXXXXXXXXXXXXXXXXXXXXXXOOOO  oo",
"oooo  OOOOOOOOXXXXXXXXXXXXXXXXXXXXXXXXXXXXXXXXXXXXXXXXXXOOOO  oo",
"oooo  XXOOOOOOOOXXXXXXXXXXXXXXXXXXXXXXXXXXXXXXXXXXXXXX@@@@OO  oo",
"oooo  XXOOOOOOOOXXXXXXXXXXXXXXXXXXXXXXXXXXXXXXXXXXXXXX@@@@OO  oo",
"oooo  XXOOOOOOOOOOOOXXXXXXXXXXXXXXXXXXXXXXXXXXXXXXOOOO@@@@XX  oo",
"oooo  XXOOOOOOOOOOOOXXXXXXXXXXXXXXXXXXXXXXXXXXXXXXOOOO@@@@XX  oo",
"oooo  XXXXOOOOOOOOOOOOOOOOOOOOOOOOXXXXXXXXXXXXOOOOOOOOOOXXXX  oo",
"oooo  XXXXOOOOOOOOOOOOOOOOOOOOOOOOXXXXXXXXXXXXOOOOOOOOOOXXXX  oo",
"oooo  XXXXXXXXOOOO@@@@@@OOOOOOOOOOOOOOXXXXXXXXXXXXXXXXXXXXXX  oo",
"oooo  XXXXXXXXOOOO@@@@@@OOOOOOOOOOOOOOXXXXXXXXXXXXXXXXXXXXXX  oo",
"oooo..  XXXXXXXXXXXXXXXXXXXXXXXXXXXXXXXXXXXXXXXXXXXXXXXXXXXX  oo",
"oooo..  XXXXXXXXXXXXXXXXXXXXXXXXXXXXXXXXXXXXXXXXXXXXXXXXXXXX  oo",
"oo....  XXXXXXXXXXXXXXXXXXXXXXXXXXXXXXXXXXXXXXXXXXXXXXXXXX  ..oo",
"oo....  XXXXXXXXXXXXXXXXXXXXXXXXXXXXXXXXXXXXXXXXXXXXXXXXXX  ..oo",
"oo......  XXXXXXXXXXXXXXXXXXXXXXXXXXXXXXXXXXXXXXXXXXXXXX  ....oo",
"oo......  XXXXXXXXXXXXXXXXXXXXXXXXXXXXXXXXXXXXXXXXXXXXXX  ....oo",
"oo........  XXXXXXXXXXXXXXXXXXXXXXXXXXXXXXXXXXXXXXXXXX  ....oooo",
"oo........  XXXXXXXXXXXXXXXXXXXXXXXXXXXXXXXXXXXXXXXXXX  ....oooo",
"oooo......................................................oooooo",
"oooo......................................................oooooo",
"oooooo..................................................oooooooo",
"oooooo..................................................oooooooo",
"oooooooooooooooooooooooooooooooooooooooooooooooooooooooooooooooo",
"oooooooooooooooooooooooooooooooooooooooooooooooooooooooooooooooo"
};
