/* XPM */
static char *_e90ada213014998c5983c5766e56a61scy3vt24Ci03Car4[] = {
/* columns rows colors chars-per-pixel */
"32 32 4 1 ",
"  c None",
". c gray24",
"X c #99E550",
"o c white",
/* pixels */
"                                ",
"                                ",
"                                ",
"                                ",
"                                ",
"              ....              ",
"            ........            ",
"           ..........           ",
"           ..........           ",
"           ..........           ",
"           ..........           ",
"           ..o....o..           ",
"          ...o....o...          ",
"           ..........           ",
"             ......             ",
"               ..               ",
"             X....X             ",
"            X......X            ",
"            X......X            ",
"           XX......XX           ",
"           XX......XX           ",
"          XXX......XXX          ",
"          XX........XX          ",
"          XX........XX          ",
"            ...  ...            ",
"            ...  ...            ",
"             ..  ..             ",
"             ..  ..             ",
"             ..  ..             ",
"              .  .              ",
"              .  .              ",
"             ..  ..             "
};
